<svg width="1280" height="235" viewBox="0 0 1280 235" fill="none" xmlns="http://www.w3.org/2000/svg">
<path d="M8.608 226.416C7.34933 226.416 6.13333 226.213 4.96 225.808C3.808 225.381 2.85867 224.731 2.112 223.856C1.36533 222.96 0.981333 221.808 0.96 220.4H3.008C3.008 220.464 3.02933 220.645 3.072 220.944C3.11467 221.243 3.22133 221.595 3.392 222C3.584 222.384 3.88267 222.779 4.288 223.184C4.69333 223.568 5.25867 223.888 5.984 224.144C6.70933 224.4 7.63733 224.528 8.768 224.528C10.0267 224.528 10.9867 224.347 11.648 223.984C12.3093 223.6 12.7573 223.173 12.992 222.704C13.248 222.213 13.376 221.829 13.376 221.552C13.3973 220.805 13.1947 220.208 12.768 219.76C12.3413 219.312 11.7653 218.949 11.04 218.672C10.336 218.395 9.55733 218.149 8.704 217.936C7.85067 217.723 6.99733 217.499 6.144 217.264C5.312 217.008 4.544 216.688 3.84 216.304C3.136 215.899 2.58133 215.376 2.176 214.736C1.77067 214.096 1.58933 213.275 1.632 212.272C1.67467 211.312 2.00533 210.491 2.624 209.808C3.24267 209.125 4.064 208.603 5.088 208.24C6.13333 207.856 7.31733 207.664 8.64 207.664C9.856 207.664 10.976 207.888 12 208.336C13.0453 208.763 13.8773 209.413 14.496 210.288C15.1147 211.163 15.4027 212.251 15.36 213.552H13.344C13.3653 212.741 13.2053 212.08 12.864 211.568C12.544 211.035 12.1173 210.629 11.584 210.352C11.0507 210.075 10.496 209.883 9.92 209.776C9.36533 209.648 8.87467 209.584 8.448 209.584C7.104 209.584 5.99467 209.851 5.12 210.384C4.24533 210.917 3.79733 211.611 3.776 212.464C3.776 213.211 3.98933 213.808 4.416 214.256C4.84267 214.704 5.408 215.067 6.112 215.344C6.83733 215.6 7.62667 215.824 8.48 216.016C9.33333 216.208 10.176 216.432 11.008 216.688C11.8613 216.923 12.64 217.232 13.344 217.616C14.048 218 14.6027 218.523 15.008 219.184C15.4133 219.845 15.5947 220.688 15.552 221.712C15.5093 222.715 15.1787 223.568 14.56 224.272C13.9413 224.955 13.12 225.488 12.096 225.872C11.072 226.235 9.90933 226.416 8.608 226.416ZM23.9165 226.32C21.8258 226.32 20.2578 225.701 19.2125 224.464C18.1885 223.205 17.6765 221.605 17.6765 219.664C17.6552 217.701 18.1672 216.101 19.2125 214.864C20.2792 213.605 21.8472 212.965 23.9165 212.944C25.9645 212.944 27.5112 213.563 28.5565 214.8C29.6232 216.016 30.1565 217.637 30.1565 219.664C30.1565 220.923 29.9325 222.053 29.4845 223.056C29.0365 224.059 28.3538 224.859 27.4365 225.456C26.5192 226.032 25.3458 226.32 23.9165 226.32ZM23.9165 224.528C25.0258 224.528 25.8792 224.283 26.4765 223.792C27.0952 223.301 27.5218 222.683 27.7565 221.936C28.0125 221.168 28.1405 220.389 28.1405 219.6C28.1405 218.811 28.0125 218.032 27.7565 217.264C27.5218 216.496 27.0952 215.867 26.4765 215.376C25.8792 214.885 25.0258 214.64 23.9165 214.64C22.8072 214.64 21.9432 214.885 21.3245 215.376C20.7272 215.867 20.3005 216.496 20.0445 217.264C19.8098 218.032 19.6925 218.811 19.6925 219.6C19.6925 220.389 19.8098 221.168 20.0445 221.936C20.3005 222.683 20.7272 223.301 21.3245 223.792C21.9432 224.283 22.8072 224.528 23.9165 224.528ZM33.1015 226V207.984H35.1175V226H33.1015ZM47.3093 212.976H49.3573V213.424L44.4293 226H41.5173L36.5572 213.424V212.976H38.6053L42.9573 224.304H43.0213L47.3093 212.976ZM56.886 226.32C55.4567 226.32 54.2727 226 53.334 225.36C52.4167 224.699 51.734 223.856 51.286 222.832C50.8593 221.787 50.646 220.709 50.646 219.6C50.646 218.384 50.8807 217.275 51.35 216.272C51.8407 215.248 52.5447 214.437 53.462 213.84C54.4007 213.243 55.5207 212.944 56.822 212.944C58.486 212.944 59.8727 213.488 60.982 214.576C62.0913 215.643 62.6887 217.083 62.774 218.896C62.7953 218.981 62.806 219.109 62.806 219.28C62.806 219.429 62.806 219.568 62.806 219.696H52.63C52.63 221.211 52.9927 222.405 53.718 223.28C54.4647 224.133 55.51 224.56 56.854 224.56C57.8567 224.56 58.71 224.304 59.414 223.792C60.1393 223.28 60.5873 222.587 60.758 221.712H62.774C62.5607 223.035 61.9313 224.133 60.886 225.008C59.8407 225.883 58.5073 226.32 56.886 226.32ZM52.694 218.576H60.694C60.694 218.128 60.566 217.595 60.31 216.976C60.0753 216.357 59.67 215.824 59.094 215.376C58.5393 214.907 57.7713 214.672 56.79 214.672C55.894 214.672 55.158 214.864 54.582 215.248C54.006 215.632 53.5687 216.123 53.27 216.72C52.9713 217.317 52.7793 217.936 52.694 218.576ZM78.9813 226.32C77.7653 226.32 76.6773 226.064 75.7173 225.552C74.7573 225.04 73.9999 224.293 73.4453 223.312C72.8906 222.331 72.6133 221.147 72.6133 219.76C72.6559 218.395 72.9439 217.2 73.4773 216.176C74.0319 215.152 74.7893 214.363 75.7493 213.808C76.7093 213.232 77.8079 212.944 79.0453 212.944C80.1973 212.944 81.1999 213.157 82.0533 213.584C82.9066 214.011 83.5893 214.587 84.1013 215.312C84.6133 216.037 84.9333 216.837 85.0613 217.712H83.1733C82.9599 216.773 82.4906 216.048 81.7653 215.536C81.0613 215.024 80.1759 214.768 79.1093 214.768C77.7439 214.768 76.6559 215.227 75.8453 216.144C75.0559 217.04 74.6506 218.213 74.6293 219.664C74.6293 221.136 75.0133 222.309 75.7812 223.184C76.5706 224.037 77.6693 224.464 79.0773 224.464C80.1013 224.464 80.9866 224.208 81.7333 223.696C82.4799 223.184 82.9599 222.448 83.1733 221.488H85.0613C84.9333 222.384 84.6026 223.195 84.0693 223.92C83.5573 224.645 82.8639 225.232 81.9893 225.68C81.1359 226.107 80.1333 226.32 78.9813 226.32ZM93.354 226.32C91.2633 226.32 89.6953 225.701 88.65 224.464C87.626 223.205 87.114 221.605 87.114 219.664C87.0927 217.701 87.6047 216.101 88.65 214.864C89.7167 213.605 91.2847 212.965 93.354 212.944C95.402 212.944 96.9487 213.563 97.994 214.8C99.0607 216.016 99.594 217.637 99.594 219.664C99.594 220.923 99.37 222.053 98.922 223.056C98.474 224.059 97.7913 224.859 96.874 225.456C95.9567 226.032 94.7833 226.32 93.354 226.32ZM93.354 224.528C94.4633 224.528 95.3167 224.283 95.914 223.792C96.5327 223.301 96.9593 222.683 97.194 221.936C97.45 221.168 97.578 220.389 97.578 219.6C97.578 218.811 97.45 218.032 97.194 217.264C96.9593 216.496 96.5327 215.867 95.914 215.376C95.3167 214.885 94.4633 214.64 93.354 214.64C92.2447 214.64 91.3807 214.885 90.762 215.376C90.1647 215.867 89.738 216.496 89.482 217.264C89.2473 218.032 89.13 218.811 89.13 219.6C89.13 220.389 89.2473 221.168 89.482 221.936C89.738 222.683 90.1647 223.301 90.762 223.792C91.3807 224.283 92.2447 224.528 93.354 224.528ZM102.091 226V212.976H103.851L103.979 216.208H104.043C104.086 216.059 104.182 215.813 104.331 215.472C104.48 215.109 104.715 214.736 105.035 214.352C105.355 213.968 105.771 213.648 106.283 213.392C106.795 213.115 107.446 212.976 108.235 212.976C109.43 212.976 110.304 213.307 110.859 213.968C111.435 214.629 111.819 215.376 112.011 216.208H112.075C112.139 216.059 112.256 215.813 112.427 215.472C112.598 215.109 112.854 214.736 113.195 214.352C113.536 213.968 113.974 213.648 114.507 213.392C115.062 213.115 115.734 212.976 116.523 212.976C117.355 212.976 118.038 213.147 118.571 213.488C119.104 213.808 119.51 214.245 119.787 214.8C120.086 215.333 120.299 215.899 120.427 216.496C120.555 217.093 120.63 217.669 120.651 218.224C120.672 218.779 120.683 219.227 120.683 219.568V226H118.891V219.568C118.891 219.227 118.87 218.789 118.827 218.256C118.784 217.723 118.678 217.2 118.507 216.688C118.336 216.155 118.038 215.717 117.611 215.376C117.206 215.013 116.619 214.832 115.851 214.832C114.998 214.832 114.315 215.067 113.803 215.536C113.291 216.005 112.918 216.624 112.683 217.392C112.448 218.139 112.331 218.949 112.331 219.824V226H110.539V219.568C110.539 219.227 110.518 218.789 110.475 218.256C110.432 217.723 110.326 217.2 110.155 216.688C109.984 216.155 109.686 215.717 109.259 215.376C108.854 215.013 108.267 214.832 107.499 214.832C106.646 214.832 105.963 215.067 105.451 215.536C104.939 216.005 104.566 216.624 104.331 217.392C104.096 218.139 103.979 218.949 103.979 219.824V226H102.091ZM130.48 226.32C129.648 226.32 128.933 226.181 128.336 225.904C127.76 225.605 127.291 225.264 126.928 224.88C126.565 224.496 126.288 224.133 126.096 223.792C125.925 223.451 125.819 223.227 125.776 223.12H125.712V231.376H123.6V212.976H125.36L125.712 216.24H125.776C125.819 216.133 125.925 215.909 126.096 215.568C126.267 215.227 126.523 214.853 126.864 214.448C127.227 214.043 127.696 213.701 128.272 213.424C128.869 213.125 129.605 212.976 130.48 212.976C131.739 212.976 132.784 213.264 133.616 213.84C134.469 214.416 135.109 215.216 135.536 216.24C135.984 217.243 136.208 218.395 136.208 219.696C136.208 221.637 135.717 223.227 134.736 224.464C133.755 225.701 132.336 226.32 130.48 226.32ZM130.064 224.496C131.067 224.496 131.867 224.261 132.464 223.792C133.083 223.323 133.52 222.725 133.776 222C134.053 221.253 134.192 220.475 134.192 219.664C134.192 218.832 134.043 218.053 133.744 217.328C133.445 216.603 132.976 216.016 132.336 215.568C131.717 215.099 130.896 214.864 129.872 214.864C128.635 214.864 127.643 215.301 126.896 216.176C126.149 217.029 125.776 218.192 125.776 219.664C125.776 221.157 126.171 222.341 126.96 223.216C127.749 224.069 128.784 224.496 130.064 224.496ZM138.852 226V207.984H140.868V226H138.852ZM149.667 226.32C148.238 226.32 147.054 226 146.115 225.36C145.198 224.699 144.515 223.856 144.067 222.832C143.641 221.787 143.427 220.709 143.427 219.6C143.427 218.384 143.662 217.275 144.131 216.272C144.622 215.248 145.326 214.437 146.243 213.84C147.182 213.243 148.302 212.944 149.603 212.944C151.267 212.944 152.654 213.488 153.763 214.576C154.873 215.643 155.47 217.083 155.555 218.896C155.577 218.981 155.587 219.109 155.587 219.28C155.587 219.429 155.587 219.568 155.587 219.696H145.411C145.411 221.211 145.774 222.405 146.499 223.28C147.246 224.133 148.291 224.56 149.635 224.56C150.638 224.56 151.491 224.304 152.195 223.792C152.921 223.28 153.369 222.587 153.539 221.712H155.555C155.342 223.035 154.713 224.133 153.667 225.008C152.622 225.883 151.289 226.32 149.667 226.32ZM145.475 218.576H153.475C153.475 218.128 153.347 217.595 153.091 216.976C152.857 216.357 152.451 215.824 151.875 215.376C151.321 214.907 150.553 214.672 149.571 214.672C148.675 214.672 147.939 214.864 147.363 215.248C146.787 215.632 146.35 216.123 146.051 216.72C145.753 217.317 145.561 217.936 145.475 218.576ZM157.289 226L162.057 219.28L157.513 212.976H159.849L163.369 217.968L166.889 212.976H169.225L164.681 219.28L169.513 226H167.145L163.369 220.624L159.593 226H157.289ZM186.418 226.32C185.586 226.32 184.871 226.181 184.274 225.904C183.698 225.605 183.228 225.264 182.866 224.88C182.503 224.496 182.226 224.133 182.034 223.792C181.863 223.451 181.756 223.227 181.714 223.12H181.65V231.376H179.538V212.976H181.298L181.65 216.24H181.714C181.756 216.133 181.863 215.909 182.034 215.568C182.204 215.227 182.46 214.853 182.802 214.448C183.164 214.043 183.634 213.701 184.21 213.424C184.807 213.125 185.543 212.976 186.418 212.976C187.676 212.976 188.722 213.264 189.554 213.84C190.407 214.416 191.047 215.216 191.474 216.24C191.922 217.243 192.146 218.395 192.146 219.696C192.146 221.637 191.655 223.227 190.674 224.464C189.692 225.701 188.274 226.32 186.418 226.32ZM186.002 224.496C187.004 224.496 187.804 224.261 188.402 223.792C189.02 223.323 189.458 222.725 189.714 222C189.991 221.253 190.13 220.475 190.13 219.664C190.13 218.832 189.98 218.053 189.682 217.328C189.383 216.603 188.914 216.016 188.274 215.568C187.655 215.099 186.834 214.864 185.81 214.864C184.572 214.864 183.58 215.301 182.834 216.176C182.087 217.029 181.714 218.192 181.714 219.664C181.714 221.157 182.108 222.341 182.898 223.216C183.687 224.069 184.722 224.496 186.002 224.496ZM194.661 226V212.976H196.517L196.741 216.4C196.869 215.824 197.125 215.269 197.509 214.736C197.893 214.203 198.416 213.776 199.077 213.456C199.76 213.115 200.602 212.955 201.605 212.976H202.213V215.248H201.573C200.208 215.248 199.173 215.451 198.469 215.856C197.786 216.24 197.317 216.784 197.061 217.488C196.826 218.192 196.709 219.003 196.709 219.92V226H194.661ZM209.667 226.32C207.576 226.32 206.008 225.701 204.963 224.464C203.939 223.205 203.427 221.605 203.427 219.664C203.405 217.701 203.917 216.101 204.963 214.864C206.029 213.605 207.597 212.965 209.667 212.944C211.715 212.944 213.261 213.563 214.307 214.8C215.373 216.016 215.907 217.637 215.907 219.664C215.907 220.923 215.683 222.053 215.235 223.056C214.787 224.059 214.104 224.859 213.187 225.456C212.269 226.032 211.096 226.32 209.667 226.32ZM209.667 224.528C210.776 224.528 211.629 224.283 212.227 223.792C212.845 223.301 213.272 222.683 213.507 221.936C213.763 221.168 213.891 220.389 213.891 219.6C213.891 218.811 213.763 218.032 213.507 217.264C213.272 216.496 212.845 215.867 212.227 215.376C211.629 214.885 210.776 214.64 209.667 214.64C208.557 214.64 207.693 214.885 207.075 215.376C206.477 215.867 206.051 216.496 205.795 217.264C205.56 218.032 205.443 218.811 205.443 219.6C205.443 220.389 205.56 221.168 205.795 221.936C206.051 222.683 206.477 223.301 207.075 223.792C207.693 224.283 208.557 224.528 209.667 224.528ZM225.635 226.32C224.782 226.32 224.057 226.181 223.46 225.904C222.884 225.605 222.404 225.264 222.02 224.88C221.657 224.496 221.38 224.133 221.188 223.792C220.996 223.451 220.878 223.227 220.836 223.12H220.772L220.452 226H218.66V207.984H220.772L220.804 216.24H220.868C220.91 216.133 221.017 215.909 221.188 215.568C221.358 215.227 221.625 214.853 221.988 214.448C222.35 214.043 222.82 213.701 223.396 213.424C223.993 213.125 224.729 212.976 225.604 212.976C226.862 212.976 227.908 213.264 228.74 213.84C229.593 214.416 230.233 215.216 230.66 216.24C231.086 217.243 231.3 218.384 231.3 219.664C231.3 220.944 231.086 222.085 230.66 223.088C230.233 224.091 229.593 224.88 228.74 225.456C227.908 226.032 226.873 226.32 225.635 226.32ZM225.124 224.496C226.148 224.496 226.958 224.261 227.556 223.792C228.153 223.323 228.59 222.725 228.868 222C229.145 221.253 229.284 220.475 229.284 219.664C229.284 218.832 229.134 218.053 228.836 217.328C228.537 216.603 228.068 216.016 227.428 215.568C226.788 215.099 225.966 214.864 224.964 214.864C223.705 214.864 222.702 215.301 221.956 216.176C221.209 217.029 220.836 218.192 220.836 219.664C220.836 221.157 221.23 222.341 222.02 223.216C222.83 224.069 223.865 224.496 225.124 224.496ZM234.07 226V207.984H236.086V226H234.07ZM244.886 226.32C243.457 226.32 242.273 226 241.334 225.36C240.417 224.699 239.734 223.856 239.286 222.832C238.859 221.787 238.646 220.709 238.646 219.6C238.646 218.384 238.881 217.275 239.35 216.272C239.841 215.248 240.545 214.437 241.462 213.84C242.401 213.243 243.521 212.944 244.822 212.944C246.486 212.944 247.873 213.488 248.982 214.576C250.091 215.643 250.689 217.083 250.774 218.896C250.795 218.981 250.806 219.109 250.806 219.28C250.806 219.429 250.806 219.568 250.806 219.696H240.63C240.63 221.211 240.993 222.405 241.718 223.28C242.465 224.133 243.51 224.56 244.854 224.56C245.857 224.56 246.71 224.304 247.414 223.792C248.139 223.28 248.587 222.587 248.758 221.712H250.774C250.561 223.035 249.931 224.133 248.886 225.008C247.841 225.883 246.507 226.32 244.886 226.32ZM240.694 218.576H248.694C248.694 218.128 248.566 217.595 248.31 216.976C248.075 216.357 247.67 215.824 247.094 215.376C246.539 214.907 245.771 214.672 244.79 214.672C243.894 214.672 243.158 214.864 242.582 215.248C242.006 215.632 241.569 216.123 241.27 216.72C240.971 217.317 240.779 217.936 240.694 218.576ZM253.404 226V212.976H255.164L255.292 216.208H255.356C255.398 216.059 255.494 215.813 255.644 215.472C255.793 215.109 256.028 214.736 256.348 214.352C256.668 213.968 257.084 213.648 257.596 213.392C258.108 213.115 258.758 212.976 259.548 212.976C260.742 212.976 261.617 213.307 262.172 213.968C262.748 214.629 263.132 215.376 263.324 216.208H263.388C263.452 216.059 263.569 215.813 263.74 215.472C263.91 215.109 264.166 214.736 264.508 214.352C264.849 213.968 265.286 213.648 265.82 213.392C266.374 213.115 267.046 212.976 267.836 212.976C268.668 212.976 269.35 213.147 269.884 213.488C270.417 213.808 270.822 214.245 271.1 214.8C271.398 215.333 271.612 215.899 271.74 216.496C271.868 217.093 271.942 217.669 271.964 218.224C271.985 218.779 271.996 219.227 271.996 219.568V226H270.204V219.568C270.204 219.227 270.182 218.789 270.14 218.256C270.097 217.723 269.99 217.2 269.819 216.688C269.649 216.155 269.35 215.717 268.924 215.376C268.518 215.013 267.932 214.832 267.164 214.832C266.31 214.832 265.628 215.067 265.116 215.536C264.604 216.005 264.23 216.624 263.996 217.392C263.761 218.139 263.644 218.949 263.644 219.824V226H261.852V219.568C261.852 219.227 261.83 218.789 261.788 218.256C261.745 217.723 261.638 217.2 261.468 216.688C261.297 216.155 260.998 215.717 260.572 215.376C260.166 215.013 259.58 214.832 258.812 214.832C257.958 214.832 257.276 215.067 256.764 215.536C256.252 216.005 255.878 216.624 255.644 217.392C255.409 218.139 255.292 218.949 255.292 219.824V226H253.404ZM279.713 226.32C278.475 226.32 277.451 226.064 276.641 225.552C275.851 225.019 275.254 224.4 274.849 223.696C274.465 222.992 274.273 222.363 274.273 221.808H276.257C276.257 221.829 276.267 221.989 276.289 222.288C276.331 222.587 276.449 222.928 276.641 223.312C276.833 223.696 277.163 224.037 277.633 224.336C278.102 224.613 278.785 224.752 279.681 224.752C280.641 224.752 281.462 224.581 282.145 224.24C282.849 223.899 283.19 223.365 283.169 222.64C283.169 222.021 282.955 221.552 282.529 221.232C282.123 220.891 281.59 220.635 280.929 220.464C280.267 220.272 279.574 220.091 278.849 219.92C278.123 219.749 277.43 219.536 276.769 219.28C276.129 219.003 275.606 218.619 275.201 218.128C274.795 217.637 274.593 216.955 274.593 216.08C274.593 215.013 275.073 214.171 276.033 213.552C276.993 212.912 278.219 212.592 279.713 212.592C280.545 212.592 281.387 212.731 282.241 213.008C283.094 213.264 283.798 213.723 284.353 214.384C284.907 215.024 285.163 215.931 285.121 217.104H283.201C283.243 216.293 283.062 215.685 282.657 215.28C282.251 214.875 281.761 214.608 281.185 214.48C280.63 214.331 280.118 214.256 279.649 214.256C278.731 214.256 277.974 214.427 277.377 214.768C276.801 215.109 276.513 215.589 276.513 216.208C276.513 216.805 276.715 217.264 277.121 217.584C277.547 217.883 278.081 218.128 278.721 218.32C279.382 218.491 280.075 218.661 280.801 218.832C281.547 218.981 282.251 219.195 282.913 219.472C283.574 219.749 284.107 220.144 284.513 220.656C284.939 221.168 285.153 221.872 285.153 222.768C285.153 224.005 284.63 224.912 283.585 225.488C282.539 226.043 281.249 226.32 279.713 226.32Z" fill="#1A1A1A"/>
<path d="M1031.91 209.776V207.984H1045.51V209.776H1039.75V226H1037.71V209.776H1031.91ZM1050.6 226.32C1048.51 226.32 1046.95 225.701 1045.9 224.464C1044.88 223.205 1044.36 221.605 1044.36 219.664C1044.34 217.701 1044.85 216.101 1045.9 214.864C1046.97 213.605 1048.53 212.965 1050.6 212.944C1052.65 212.944 1054.2 213.563 1055.24 214.8C1056.31 216.016 1056.84 217.637 1056.84 219.664C1056.84 220.923 1056.62 222.053 1056.17 223.056C1055.72 224.059 1055.04 224.859 1054.12 225.456C1053.21 226.032 1052.03 226.32 1050.6 226.32ZM1050.6 224.528C1051.71 224.528 1052.57 224.283 1053.16 223.792C1053.78 223.301 1054.21 222.683 1054.44 221.936C1054.7 221.168 1054.83 220.389 1054.83 219.6C1054.83 218.811 1054.7 218.032 1054.44 217.264C1054.21 216.496 1053.78 215.867 1053.16 215.376C1052.57 214.885 1051.71 214.64 1050.6 214.64C1049.49 214.64 1048.63 214.885 1048.01 215.376C1047.41 215.867 1046.99 216.496 1046.73 217.264C1046.5 218.032 1046.38 218.811 1046.38 219.6C1046.38 220.389 1046.5 221.168 1046.73 221.936C1046.99 222.683 1047.41 223.301 1048.01 223.792C1048.63 224.283 1049.49 224.528 1050.6 224.528ZM1067.7 226V207.984H1073.65C1075.94 207.984 1077.7 208.347 1078.93 209.072C1080.19 209.797 1080.82 211.152 1080.82 213.136C1080.82 214.416 1080.47 215.525 1079.77 216.464C1079.08 217.381 1078.03 217.84 1076.6 217.84C1077.49 217.84 1078.16 218.032 1078.58 218.416C1079.03 218.8 1079.33 219.291 1079.48 219.888C1079.65 220.464 1079.75 221.072 1079.77 221.712C1079.79 222.331 1079.83 222.896 1079.89 223.408C1079.96 223.92 1080.11 224.293 1080.34 224.528C1080.6 224.763 1081.03 224.773 1081.62 224.56V225.904C1081.43 226.075 1081.13 226.192 1080.73 226.256C1080.34 226.341 1079.94 226.32 1079.51 226.192C1079.08 226.064 1078.72 225.776 1078.42 225.328C1078.15 224.88 1078.01 224.219 1078.01 223.344C1078.01 222.021 1077.93 220.997 1077.78 220.272C1077.63 219.547 1077.29 219.035 1076.76 218.736C1076.25 218.437 1075.44 218.267 1074.33 218.224C1073.22 218.181 1071.7 218.181 1069.78 218.224V226H1067.7ZM1069.78 216.656H1073.97C1075.66 216.656 1076.91 216.432 1077.72 215.984C1078.55 215.536 1078.97 214.629 1078.97 213.264C1078.97 212.197 1078.74 211.419 1078.29 210.928C1077.85 210.416 1077.2 210.096 1076.34 209.968C1075.51 209.819 1074.48 209.744 1073.24 209.744H1069.78V216.656ZM1089.85 226.32C1088.43 226.32 1087.24 226 1086.3 225.36C1085.39 224.699 1084.7 223.856 1084.25 222.832C1083.83 221.787 1083.61 220.709 1083.61 219.6C1083.61 218.384 1083.85 217.275 1084.32 216.272C1084.81 215.248 1085.51 214.437 1086.43 213.84C1087.37 213.243 1088.49 212.944 1089.79 212.944C1091.45 212.944 1092.84 213.488 1093.95 214.576C1095.06 215.643 1095.66 217.083 1095.74 218.896C1095.76 218.981 1095.77 219.109 1095.77 219.28C1095.77 219.429 1095.77 219.568 1095.77 219.696H1085.6C1085.6 221.211 1085.96 222.405 1086.69 223.28C1087.43 224.133 1088.48 224.56 1089.82 224.56C1090.83 224.56 1091.68 224.304 1092.38 223.792C1093.11 223.28 1093.56 222.587 1093.73 221.712H1095.74C1095.53 223.035 1094.9 224.133 1093.85 225.008C1092.81 225.883 1091.48 226.32 1089.85 226.32ZM1085.66 218.576H1093.66C1093.66 218.128 1093.53 217.595 1093.28 216.976C1093.04 216.357 1092.64 215.824 1092.06 215.376C1091.51 214.907 1090.74 214.672 1089.76 214.672C1088.86 214.672 1088.13 214.864 1087.55 215.248C1086.97 215.632 1086.54 216.123 1086.24 216.72C1085.94 217.317 1085.75 217.936 1085.66 218.576ZM1102.95 226.288C1101.75 226.288 1100.77 226 1100 225.424C1099.24 224.827 1098.66 224.027 1098.28 223.024C1097.91 222.021 1097.73 220.88 1097.73 219.6C1097.73 217.637 1098.16 216.027 1099.01 214.768C1099.89 213.488 1101.2 212.848 1102.95 212.848C1103.84 212.848 1104.59 213.008 1105.19 213.328C1105.81 213.627 1106.3 214 1106.66 214.448C1107.04 214.896 1107.32 215.323 1107.49 215.728H1107.52V212.976H1109.64V226H1107.88L1107.56 223.472H1107.49C1107.3 223.899 1107.02 224.336 1106.66 224.784C1106.3 225.211 1105.81 225.573 1105.19 225.872C1104.59 226.149 1103.84 226.288 1102.95 226.288ZM1103.75 224.464C1105.07 224.464 1106.02 224.027 1106.6 223.152C1107.19 222.277 1107.49 221.104 1107.49 219.632C1107.49 218.053 1107.18 216.848 1106.56 216.016C1105.97 215.184 1105.03 214.768 1103.75 214.768C1102.34 214.768 1101.33 215.237 1100.71 216.176C1100.11 217.093 1099.81 218.235 1099.81 219.6C1099.81 221.029 1100.12 222.203 1100.74 223.12C1101.36 224.016 1102.36 224.464 1103.75 224.464ZM1118.01 226.32C1116.8 226.32 1115.71 226.064 1114.75 225.552C1113.79 225.04 1113.03 224.293 1112.48 223.312C1111.92 222.331 1111.64 221.147 1111.64 219.76C1111.69 218.395 1111.98 217.2 1112.51 216.176C1113.06 215.152 1113.82 214.363 1114.78 213.808C1115.74 213.232 1116.84 212.944 1118.08 212.944C1119.23 212.944 1120.23 213.157 1121.08 213.584C1121.94 214.011 1122.62 214.587 1123.13 215.312C1123.64 216.037 1123.96 216.837 1124.09 217.712H1122.2C1121.99 216.773 1121.52 216.048 1120.8 215.536C1120.09 215.024 1119.21 214.768 1118.14 214.768C1116.78 214.768 1115.69 215.227 1114.88 216.144C1114.09 217.04 1113.68 218.213 1113.66 219.664C1113.66 221.136 1114.04 222.309 1114.81 223.184C1115.6 224.037 1116.7 224.464 1118.11 224.464C1119.13 224.464 1120.02 224.208 1120.76 223.696C1121.51 223.184 1121.99 222.448 1122.2 221.488H1124.09C1123.96 222.384 1123.63 223.195 1123.1 223.92C1122.59 224.645 1121.9 225.232 1121.02 225.68C1120.17 226.107 1119.16 226.32 1118.01 226.32ZM1126.63 226V207.984H1128.71V216.208H1128.77C1128.81 216.101 1128.91 215.877 1129.06 215.536C1129.23 215.195 1129.48 214.832 1129.83 214.448C1130.17 214.043 1130.63 213.701 1131.2 213.424C1131.78 213.125 1132.5 212.976 1133.38 212.976C1134.49 212.976 1135.37 213.189 1136.03 213.616C1136.69 214.021 1137.19 214.565 1137.51 215.248C1137.85 215.909 1138.07 216.624 1138.18 217.392C1138.28 218.16 1138.34 218.885 1138.34 219.568V226H1136.32V219.568C1136.32 218.16 1136.08 217.019 1135.59 216.144C1135.12 215.269 1134.19 214.832 1132.8 214.832C1131.82 214.832 1131.03 215.067 1130.43 215.536C1129.84 215.984 1129.4 216.592 1129.12 217.36C1128.84 218.107 1128.71 218.928 1128.71 219.824V226H1126.63ZM1147.7 209.776V207.984H1161.3V209.776H1155.54V226H1153.49V209.776H1147.7ZM1163.09 226V207.984H1165.17V216.208H1165.24C1165.28 216.101 1165.38 215.877 1165.53 215.536C1165.7 215.195 1165.95 214.832 1166.29 214.448C1166.64 214.043 1167.09 213.701 1167.67 213.424C1168.25 213.125 1168.97 212.976 1169.85 212.976C1170.96 212.976 1171.84 213.189 1172.5 213.616C1173.16 214.021 1173.65 214.565 1173.97 215.248C1174.32 215.909 1174.54 216.624 1174.65 217.392C1174.75 218.16 1174.81 218.885 1174.81 219.568V226H1172.79V219.568C1172.79 218.16 1172.54 217.019 1172.05 216.144C1171.58 215.269 1170.66 214.832 1169.27 214.832C1168.29 214.832 1167.5 215.067 1166.9 215.536C1166.3 215.984 1165.87 216.592 1165.59 217.36C1165.31 218.107 1165.17 218.928 1165.17 219.824V226H1163.09ZM1183.39 226.32C1181.96 226.32 1180.77 226 1179.83 225.36C1178.92 224.699 1178.23 223.856 1177.79 222.832C1177.36 221.787 1177.15 220.709 1177.15 219.6C1177.15 218.384 1177.38 217.275 1177.85 216.272C1178.34 215.248 1179.04 214.437 1179.96 213.84C1180.9 213.243 1182.02 212.944 1183.32 212.944C1184.99 212.944 1186.37 213.488 1187.48 214.576C1188.59 215.643 1189.19 217.083 1189.27 218.896C1189.3 218.981 1189.31 219.109 1189.31 219.28C1189.31 219.429 1189.31 219.568 1189.31 219.696H1179.13C1179.13 221.211 1179.49 222.405 1180.22 223.28C1180.96 224.133 1182.01 224.56 1183.35 224.56C1184.36 224.56 1185.21 224.304 1185.91 223.792C1186.64 223.28 1187.09 222.587 1187.26 221.712H1189.27C1189.06 223.035 1188.43 224.133 1187.39 225.008C1186.34 225.883 1185.01 226.32 1183.39 226.32ZM1179.19 218.576H1187.19C1187.19 218.128 1187.07 217.595 1186.81 216.976C1186.58 216.357 1186.17 215.824 1185.59 215.376C1185.04 214.907 1184.27 214.672 1183.29 214.672C1182.39 214.672 1181.66 214.864 1181.08 215.248C1180.51 215.632 1180.07 216.123 1179.77 216.72C1179.47 217.317 1179.28 217.936 1179.19 218.576ZM1193.54 211.568C1193.07 211.568 1192.75 211.451 1192.58 211.216C1192.43 210.96 1192.35 210.64 1192.35 210.256C1192.35 209.936 1192.43 209.659 1192.58 209.424C1192.75 209.168 1193.07 209.04 1193.54 209.04C1194 209.04 1194.31 209.168 1194.46 209.424C1194.63 209.659 1194.72 209.936 1194.72 210.256C1194.72 210.64 1194.63 210.96 1194.46 211.216C1194.31 211.451 1194 211.568 1193.54 211.568ZM1192.51 226V212.976H1194.56V226H1192.51ZM1197.88 226V212.976H1199.74L1199.96 216.4C1200.09 215.824 1200.34 215.269 1200.73 214.736C1201.11 214.203 1201.63 213.776 1202.3 213.456C1202.98 213.115 1203.82 212.955 1204.82 212.976H1205.43V215.248H1204.79C1203.43 215.248 1202.39 215.451 1201.69 215.856C1201.01 216.24 1200.54 216.784 1200.28 217.488C1200.05 218.192 1199.93 219.003 1199.93 219.92V226H1197.88ZM1222.91 226.416C1221.18 226.416 1219.67 226.053 1218.39 225.328C1217.11 224.581 1216.12 223.515 1215.42 222.128C1214.74 220.741 1214.39 219.056 1214.39 217.072C1214.42 215.088 1214.79 213.392 1215.51 211.984C1216.26 210.576 1217.3 209.509 1218.62 208.784C1219.94 208.037 1221.49 207.664 1223.26 207.664C1225.54 207.664 1227.36 208.197 1228.73 209.264C1230.12 210.309 1231 211.845 1231.39 213.872L1229.4 214.128C1229.06 212.549 1228.35 211.397 1227.26 210.672C1226.17 209.947 1224.84 209.584 1223.26 209.584C1220.98 209.584 1219.28 210.235 1218.17 211.536C1217.06 212.837 1216.46 214.651 1216.38 216.976C1216.38 219.344 1216.99 221.179 1218.2 222.48C1219.44 223.781 1221.16 224.432 1223.35 224.432C1225.04 224.432 1226.45 223.984 1227.58 223.088C1228.73 222.192 1229.4 220.869 1229.59 219.12H1224.63V217.52H1231.77V226H1230.3L1229.82 222.032H1229.75C1229.58 222.608 1229.23 223.237 1228.7 223.92C1228.16 224.603 1227.42 225.189 1226.46 225.68C1225.52 226.171 1224.34 226.416 1222.91 226.416ZM1240.2 226.32C1238.11 226.32 1236.54 225.701 1235.49 224.464C1234.47 223.205 1233.96 221.605 1233.96 219.664C1233.94 217.701 1234.45 216.101 1235.49 214.864C1236.56 213.605 1238.13 212.965 1240.2 212.944C1242.25 212.944 1243.79 213.563 1244.84 214.8C1245.9 216.016 1246.44 217.637 1246.44 219.664C1246.44 220.923 1246.21 222.053 1245.77 223.056C1245.32 224.059 1244.64 224.859 1243.72 225.456C1242.8 226.032 1241.63 226.32 1240.2 226.32ZM1240.2 224.528C1241.31 224.528 1242.16 224.283 1242.76 223.792C1243.38 223.301 1243.8 222.683 1244.04 221.936C1244.29 221.168 1244.42 220.389 1244.42 219.6C1244.42 218.811 1244.29 218.032 1244.04 217.264C1243.8 216.496 1243.38 215.867 1242.76 215.376C1242.16 214.885 1241.31 214.64 1240.2 214.64C1239.09 214.64 1238.22 214.885 1237.61 215.376C1237.01 215.867 1236.58 216.496 1236.33 217.264C1236.09 218.032 1235.97 218.811 1235.97 219.6C1235.97 220.389 1236.09 221.168 1236.33 221.936C1236.58 222.683 1237.01 223.301 1237.61 223.792C1238.22 224.283 1239.09 224.528 1240.2 224.528ZM1253.51 226.288C1252.32 226.288 1251.33 226 1250.57 225.424C1249.8 224.827 1249.22 224.027 1248.84 223.024C1248.48 222.021 1248.29 220.88 1248.29 219.6C1248.29 217.637 1248.72 216.027 1249.57 214.768C1250.45 213.488 1251.76 212.848 1253.51 212.848C1254.41 212.848 1255.15 213.008 1255.75 213.328C1256.37 213.627 1256.86 214 1257.22 214.448C1257.61 214.896 1257.88 215.323 1258.05 215.728H1258.09V212.976H1260.2V226H1258.44L1258.12 223.472H1258.05C1257.86 223.899 1257.59 224.336 1257.22 224.784C1256.86 225.211 1256.37 225.573 1255.75 225.872C1255.15 226.149 1254.41 226.288 1253.51 226.288ZM1254.31 224.464C1255.63 224.464 1256.58 224.027 1257.16 223.152C1257.76 222.277 1258.05 221.104 1258.05 219.632C1258.05 218.053 1257.75 216.848 1257.13 216.016C1256.53 215.184 1255.59 214.768 1254.31 214.768C1252.9 214.768 1251.89 215.237 1251.27 216.176C1250.67 217.093 1250.37 218.235 1250.37 219.6C1250.37 221.029 1250.68 222.203 1251.3 223.12C1251.92 224.016 1252.92 224.464 1254.31 224.464ZM1263.04 226V207.984H1265.06V226H1263.04ZM1273.12 226.32C1271.88 226.32 1270.86 226.064 1270.05 225.552C1269.26 225.019 1268.66 224.4 1268.25 223.696C1267.87 222.992 1267.68 222.363 1267.68 221.808H1269.66C1269.66 221.829 1269.67 221.989 1269.69 222.288C1269.74 222.587 1269.85 222.928 1270.05 223.312C1270.24 223.696 1270.57 224.037 1271.04 224.336C1271.51 224.613 1272.19 224.752 1273.09 224.752C1274.05 224.752 1274.87 224.581 1275.55 224.24C1276.25 223.899 1276.6 223.365 1276.57 222.64C1276.57 222.021 1276.36 221.552 1275.93 221.232C1275.53 220.891 1275 220.635 1274.33 220.464C1273.67 220.272 1272.98 220.091 1272.25 219.92C1271.53 219.749 1270.84 219.536 1270.17 219.28C1269.53 219.003 1269.01 218.619 1268.61 218.128C1268.2 217.637 1268 216.955 1268 216.08C1268 215.013 1268.48 214.171 1269.44 213.552C1270.4 212.912 1271.63 212.592 1273.12 212.592C1273.95 212.592 1274.79 212.731 1275.65 213.008C1276.5 213.264 1277.2 213.723 1277.76 214.384C1278.31 215.024 1278.57 215.931 1278.53 217.104H1276.61C1276.65 216.293 1276.47 215.685 1276.06 215.28C1275.66 214.875 1275.17 214.608 1274.59 214.48C1274.04 214.331 1273.52 214.256 1273.05 214.256C1272.14 214.256 1271.38 214.427 1270.78 214.768C1270.21 215.109 1269.92 215.589 1269.92 216.208C1269.92 216.805 1270.12 217.264 1270.53 217.584C1270.95 217.883 1271.49 218.128 1272.13 218.32C1272.79 218.491 1273.48 218.661 1274.21 218.832C1274.95 218.981 1275.66 219.195 1276.32 219.472C1276.98 219.749 1277.51 220.144 1277.92 220.656C1278.35 221.168 1278.56 221.872 1278.56 222.768C1278.56 224.005 1278.04 224.912 1276.99 225.488C1275.95 226.043 1274.65 226.32 1273.12 226.32Z" fill="#1A1A1A"/>
<path d="M244.281 123C239.646 123 220.854 119.858 213.146 121.014C192.436 124.119 172.62 152.198 151.764 150.204C140.585 149.135 127.067 148.269 119.505 137.98C113.679 130.054 104.001 119.263 104.928 108.286C106.121 94.1604 114.202 79.9994 126.992 75.8184C138.928 71.9166 156.465 71.7092 158.216 89.083C159.161 98.4647 160.171 115.508 150.211 119.557C136.386 125.177 121.002 125.22 106.561 127.403C94.9931 129.152 86.7731 139.75 88.4398 152.978C90.7498 171.312 118.595 172.813 131.134 173.612C143.581 174.405 156.696 174.413 168.491 169.364C182.407 163.408 194.819 151.136 202.185 137.07C206.125 129.544 209.591 119.768 207.76 110.931C205.838 101.65 195.993 100.259 188.723 99.2699C165.351 96.09 132.833 98.9214 125.16 128.01C123.363 134.822 124.869 152.181 115.442 153.152C104.738 154.254 92.3205 149.468 82.4658 146.043C73.3827 142.885 59.9786 137.429 51.1621 133.385C41.1067 128.773 29.7244 123.816 21.9693 115.049C10.0997 101.629 8.29141 75.1543 14.4819 58.1323C16.5874 52.3426 21.1867 49.0178 26.629 47.642C38.2701 44.6992 51.928 44.6036 63.6677 46.8184C85.8963 51.0121 104.68 68.8542 119.146 86.6989C123.448 92.0058 127.376 97.4464 131.014 103.301C135.606 110.689 143.58 112.934 151.366 114.398C169.867 117.877 201.601 114.204 206.884 89.6032C209.031 79.6053 207.638 68.4567 199.795 61.8603C187.841 51.806 169.311 47.1518 154.791 51.9769C136.787 57.9596 101.266 90.7814 123.009 112.448C132.92 122.323 148.946 125.718 161.761 127.533C174.309 129.31 192.924 129.404 198.839 113.792C205.573 96.0186 189.812 76.0695 178.448 65.7616C162.636 51.4196 141.974 46.4187 121.894 45.3012C106.769 44.4595 92.9975 48.1366 79.9966 56.5718C71.9192 61.8126 59.6431 72.2704 69.5222 82.7542C80.083 93.9614 98.5317 94.5639 112.137 92.9844C130.814 90.816 153.597 84.418 168.292 70.9201C181.238 59.0289 176.138 43.2573 165.066 32.08C148.187 15.0408 119.397 6.53748 98.0779 19.0322C81.7878 28.5794 71.8164 52.709 71.4737 72.1772C70.9568 101.548 97.1232 119.154 121.655 121.161C129.616 121.812 141.353 119.468 143.719 108.763C146.029 98.3141 138.142 85.7766 131.532 79.9799C116.282 66.6051 77.0244 54.0293 66.1369 80.0232C62.3611 89.038 62.0705 104.05 69.6815 111.104C76.4767 117.402 89.6666 115.354 97.5601 114.008C108.213 112.192 116.737 108.065 121.456 96.9724C127.306 83.2234 117.487 78.7935 105.884 79.4597C92.2627 80.2417 79.8786 86.8379 70.3586 97.3192C65.1844 103.016 53.7741 116.293 56.6582 125.756C59.0931 133.744 88.5635 139.895 88.8381 129.137C89.1628 116.413 52.4804 125.364 48.7726 132.951C45.4529 139.744 56.4597 146.609 60.3223 148.383C76.3313 155.74 100.117 156.006 116.079 148.514C124.237 144.684 128.98 135.095 119.744 129.007C109.4 122.189 93.9238 121.186 82.187 121.291C72.4598 121.378 60.2835 122.971 56.1803 134.295C50.3131 150.488 69.8773 162.553 81.1914 166.59C102.606 174.231 127.687 167.066 148.18 159.481C161.436 154.574 178.266 147.422 185.059 132.778C186.494 129.685 184.931 126.689 188.405 127.49C201.443 130.494 216.721 126.99 228.032 119.514C239.833 111.713 243.85 99.4174 244.281 85.0083C244.369 82.0855 245.251 66.468 241.135 64.5479C236.75 62.5027 227.993 72.7783 225.642 75.2549C221.904 79.1934 210.976 90.0818 215.487 97.1458C220.481 104.967 233.387 99.9559 238.905 96.2788C251.304 88.0158 257.445 73.1386 255.711 57.5255C254.277 44.6086 247.586 29.5785 236.117 23.9739C223.332 17.7262 211.929 26.2645 203.698 36.3715C199.962 40.9595 194.051 48.5832 196.41 55.4014C199.463 64.2304 211.462 63.0819 217.956 61.2534C228.347 58.3273 234.706 51.1166 234.325 39.1458C233.836 23.8283 221.511 15.8317 208.079 18.5987C196.347 21.0155 188.291 33.5985 181.873 43.3939C178.418 48.6668 171.128 58.4452 172.633 65.8483C173.797 71.5733 178.108 65.0396 178.767 63.2474C182.925 51.9321 182.883 36.2155 174.346 27.225C165.366 17.7693 150.406 15.9427 138.741 18.8588C124.103 22.5181 111.413 33.8032 105.486 48.8558C102.25 57.0733 101.472 68.263 111.38 70.7467C124.812 74.1136 142.259 69.0156 154.154 62.3371C163.491 57.0944 173.008 46.6626 166.5 34.6376C160.187 22.9729 145.24 21.7221 134.24 22.5C119.15 23.5674 105.099 29.9799 92.98 39.666C89.1283 42.7444 83.6581 47.0379 82.1074 52.5837C79.7805 60.9054 89.5833 65.6095 95.051 67.3222C108.471 71.5258 126.806 70.9433 138.223 61.08C145.879 54.4661 148.803 41.9134 143.48 32.6435C135.883 19.4128 118.937 13.6684 105.645 11.663C85.6381 8.64451 65.8906 15.9343 53.3128 33.5105C48.7614 39.8706 43.2441 50.6007 50.1267 57.4821C55.2954 62.65 63.3901 63.1955 69.2036 58.9993C85.7639 47.0461 56.6847 16.5279 42.241 30.9096C32.4 40.7084 25.9002 57.4698 23.0446 71.3102C20.5565 83.3694 20.7762 97.2604 32.125 103.821C38.5953 107.562 49.3565 108.974 55.5431 103.648C60.3968 99.4697 51.1935 99.1543 49.4496 99.6166C36.9907 102.92 46.1689 114.506 55.3439 111.884C66.7106 108.637 49.4522 81.777 38.8159 99.0531C34.429 106.179 38.0772 116.976 43.1172 122.461C48.9411 128.8 59.0252 129.722 66.6149 131.564C68.3337 131.982 74.1635 132.171 75.2174 134.685C77.9326 141.164 79.4999 144.512 86.1697 147.82C96.9393 153.162 108.977 153.777 120.62 153.715C125.292 153.691 131.396 152.158 136.112 152.892C138.745 153.301 141.592 156.332 143.759 157.747C147.667 160.299 151.651 162.579 155.508 165.203" stroke="#1A1A1A" stroke-width="2" stroke-linecap="round"/>
<path d="M1144.8 168C1149.76 168 1176.02 167.181 1176.02 163.167C1176.02 157.189 1162.95 158.745 1159.01 158.745C1151.4 158.745 1128.87 157.002 1136.19 158.848C1148.22 161.883 1162.22 160.596 1174.5 160.596C1181.82 160.596 1204.3 160.596 1183.24 160.596C1167.35 160.596 1150.73 159.302 1134.91 160.699C1131.38 161.01 1159.19 164.266 1164.14 164.298C1169.46 164.333 1182.99 166.322 1179.98 162.447C1175.12 156.213 1142.52 160.596 1135.37 160.596C1134.02 160.596 1114.39 161.492 1117.32 162.036C1126.91 163.819 1137.92 162.447 1147.72 162.447C1159.42 162.447 1123.26 163.217 1124.31 163.887C1128.73 166.727 1155.29 166.85 1155.29 160.596" stroke="#1A1A1A" stroke-width="3" stroke-linecap="round"/>
<path d="M232 122C257.201 124.28 345.234 133.039 370.524 134.791C406.983 137.317 443.587 139.811 479.894 144.072C518.267 148.575 556.537 147.607 595.148 147.607C627.589 147.607 659.569 147.754 691.194 139.431C709.979 134.488 734.237 129.637 750.709 118.549C762.27 110.767 766.442 99.6317 754.02 85V85C744.714 74.0392 722.914 76.2713 718.598 89.9867C717.446 93.6489 717.02 97.8184 717.02 102C717.02 128.269 747.992 130.277 768.697 134.57C802.744 141.628 839.614 141.42 874.292 141.641C914.229 141.896 954.663 135.185 994.21 129.819C1027.76 125.266 1059.21 110.286 1092.59 104.296C1098.87 103.168 1105.7 103.854 1112.02 103.854" stroke="#1A1A1A" stroke-width="2" stroke-linecap="round"/>
<path d="M1112.02 103.727C1125.77 113.722 1140.06 115.764 1148.12 131.883C1151.63 138.903 1149.01 148.515 1151.32 155.914C1152.44 159.503 1154.1 170.607 1154.1 166.846C1154.1 148.68 1144.82 131.917 1144.82 113.937C1144.82 94.9235 1144.93 76.1928 1143.07 57.5214C1141.49 41.7285 1137.39 27.7009 1137.39 11.6256C1137.39 8.08456 1137.39 4.54353 1137.39 1.0025C1137.39 0.746347 1144.34 20.2149 1147.6 24.9302C1155.85 36.836 1172.07 26.4638 1181.12 21.9392C1183.73 20.6351 1189.57 21.647 1191.23 19.5671C1196.4 13.1107 1183.92 34.5081 1178.96 41.1227C1166.86 57.2585 1148.44 68.9022 1137.39 85.4714" stroke="#1A1A1A" stroke-width="2" stroke-linecap="round"/>
</svg>
