<svg width="1280" height="183" viewBox="0 0 1280 183" fill="none" xmlns="http://www.w3.org/2000/svg">
<path d="M45.956 170.776C45.012 170.776 44.1 170.624 43.22 170.32C42.356 170 41.644 169.512 41.084 168.856C40.524 168.184 40.236 167.32 40.22 166.264H41.756C41.756 166.312 41.772 166.448 41.804 166.672C41.836 166.896 41.916 167.16 42.044 167.464C42.188 167.752 42.412 168.048 42.716 168.352C43.02 168.64 43.444 168.88 43.988 169.072C44.532 169.264 45.228 169.36 46.076 169.36C47.02 169.36 47.74 169.224 48.236 168.952C48.732 168.664 49.068 168.344 49.244 167.992C49.436 167.624 49.532 167.336 49.532 167.128C49.548 166.568 49.396 166.12 49.076 165.784C48.756 165.448 48.324 165.176 47.78 164.968C47.252 164.76 46.668 164.576 46.028 164.416C45.388 164.256 44.748 164.088 44.108 163.912C43.484 163.72 42.908 163.48 42.38 163.192C41.852 162.888 41.436 162.496 41.132 162.016C40.828 161.536 40.692 160.92 40.724 160.168C40.756 159.448 41.004 158.832 41.468 158.32C41.932 157.808 42.548 157.416 43.316 157.144C44.1 156.856 44.988 156.712 45.98 156.712C46.892 156.712 47.732 156.88 48.5 157.216C49.284 157.536 49.908 158.024 50.372 158.68C50.836 159.336 51.052 160.152 51.02 161.128H49.508C49.524 160.52 49.404 160.024 49.148 159.64C48.908 159.24 48.588 158.936 48.188 158.728C47.788 158.52 47.372 158.376 46.94 158.296C46.524 158.2 46.156 158.152 45.836 158.152C44.828 158.152 43.996 158.352 43.34 158.752C42.684 159.152 42.348 159.672 42.332 160.312C42.332 160.872 42.492 161.32 42.812 161.656C43.132 161.992 43.556 162.264 44.084 162.472C44.628 162.664 45.22 162.832 45.86 162.976C46.5 163.12 47.132 163.288 47.756 163.48C48.396 163.656 48.98 163.888 49.508 164.176C50.036 164.464 50.452 164.856 50.756 165.352C51.06 165.848 51.196 166.48 51.164 167.248C51.132 168 50.884 168.64 50.42 169.168C49.956 169.68 49.34 170.08 48.572 170.368C47.804 170.64 46.932 170.776 45.956 170.776ZM57.4374 170.704C55.8694 170.704 54.6934 170.24 53.9094 169.312C53.1414 168.368 52.7574 167.168 52.7574 165.712C52.7414 164.24 53.1254 163.04 53.9094 162.112C54.7094 161.168 55.8854 160.688 57.4374 160.672C58.9734 160.672 60.1334 161.136 60.9174 162.064C61.7174 162.976 62.1174 164.192 62.1174 165.712C62.1174 166.656 61.9494 167.504 61.6134 168.256C61.2774 169.008 60.7654 169.608 60.0774 170.056C59.3894 170.488 58.5094 170.704 57.4374 170.704ZM57.4374 169.36C58.2694 169.36 58.9094 169.176 59.3574 168.808C59.8214 168.44 60.1414 167.976 60.3174 167.416C60.5094 166.84 60.6054 166.256 60.6054 165.664C60.6054 165.072 60.5094 164.488 60.3174 163.912C60.1414 163.336 59.8214 162.864 59.3574 162.496C58.9094 162.128 58.2694 161.944 57.4374 161.944C56.6054 161.944 55.9574 162.128 55.4934 162.496C55.0454 162.864 54.7254 163.336 54.5334 163.912C54.3574 164.488 54.2694 165.072 54.2694 165.664C54.2694 166.256 54.3574 166.84 54.5334 167.416C54.7254 167.976 55.0454 168.44 55.4934 168.808C55.9574 169.176 56.6054 169.36 57.4374 169.36ZM64.3261 170.464V156.952H65.8381V170.464H64.3261ZM74.9819 160.696H76.5179V161.032L72.8219 170.464H70.6379L66.9179 161.032V160.696H68.4539L71.7179 169.192H71.7659L74.9819 160.696ZM82.1645 170.704C81.0925 170.704 80.2045 170.464 79.5005 169.984C78.8125 169.488 78.3005 168.856 77.9645 168.088C77.6445 167.304 77.4845 166.496 77.4845 165.664C77.4845 164.752 77.6605 163.92 78.0125 163.168C78.3805 162.4 78.9085 161.792 79.5965 161.344C80.3005 160.896 81.1405 160.672 82.1165 160.672C83.3645 160.672 84.4045 161.08 85.2365 161.896C86.0685 162.696 86.5165 163.776 86.5805 165.136C86.5965 165.2 86.6045 165.296 86.6045 165.424C86.6045 165.536 86.6045 165.64 86.6045 165.736H78.9725C78.9725 166.872 79.2445 167.768 79.7885 168.424C80.3485 169.064 81.1325 169.384 82.1405 169.384C82.8925 169.384 83.5325 169.192 84.0605 168.808C84.6045 168.424 84.9405 167.904 85.0685 167.248H86.5805C86.4205 168.24 85.9485 169.064 85.1645 169.72C84.3805 170.376 83.3805 170.704 82.1645 170.704ZM79.0205 164.896H85.0205C85.0205 164.56 84.9245 164.16 84.7325 163.696C84.5565 163.232 84.2525 162.832 83.8205 162.496C83.4045 162.144 82.8285 161.968 82.0925 161.968C81.4205 161.968 80.8685 162.112 80.4365 162.4C80.0045 162.688 79.6765 163.056 79.4525 163.504C79.2285 163.952 79.0845 164.416 79.0205 164.896ZM98.7359 170.704C97.8239 170.704 97.0079 170.512 96.2879 170.128C95.5679 169.744 94.9999 169.184 94.5839 168.448C94.1679 167.712 93.9599 166.824 93.9599 165.784C93.9919 164.76 94.2079 163.864 94.6079 163.096C95.0239 162.328 95.5919 161.736 96.3119 161.32C97.0319 160.888 97.8559 160.672 98.7839 160.672C99.6479 160.672 100.4 160.832 101.04 161.152C101.68 161.472 102.192 161.904 102.576 162.448C102.96 162.992 103.2 163.592 103.296 164.248H101.88C101.72 163.544 101.368 163 100.824 162.616C100.296 162.232 99.6319 162.04 98.8319 162.04C97.8079 162.04 96.9919 162.384 96.3839 163.072C95.7919 163.744 95.4879 164.624 95.4719 165.712C95.4719 166.816 95.7599 167.696 96.3359 168.352C96.9279 168.992 97.7519 169.312 98.8079 169.312C99.5759 169.312 100.24 169.12 100.8 168.736C101.36 168.352 101.72 167.8 101.88 167.08H103.296C103.2 167.752 102.952 168.36 102.552 168.904C102.168 169.448 101.648 169.888 100.992 170.224C100.352 170.544 99.5999 170.704 98.7359 170.704ZM109.516 170.704C107.948 170.704 106.772 170.24 105.988 169.312C105.22 168.368 104.836 167.168 104.836 165.712C104.82 164.24 105.204 163.04 105.988 162.112C106.788 161.168 107.964 160.688 109.516 160.672C111.052 160.672 112.212 161.136 112.996 162.064C113.796 162.976 114.196 164.192 114.196 165.712C114.196 166.656 114.028 167.504 113.692 168.256C113.356 169.008 112.844 169.608 112.156 170.056C111.468 170.488 110.588 170.704 109.516 170.704ZM109.516 169.36C110.348 169.36 110.988 169.176 111.436 168.808C111.9 168.44 112.22 167.976 112.396 167.416C112.588 166.84 112.684 166.256 112.684 165.664C112.684 165.072 112.588 164.488 112.396 163.912C112.22 163.336 111.9 162.864 111.436 162.496C110.988 162.128 110.348 161.944 109.516 161.944C108.684 161.944 108.036 162.128 107.572 162.496C107.124 162.864 106.804 163.336 106.612 163.912C106.436 164.488 106.348 165.072 106.348 165.664C106.348 166.256 106.436 166.84 106.612 167.416C106.804 167.976 107.124 168.44 107.572 168.808C108.036 169.176 108.684 169.36 109.516 169.36ZM116.068 170.464V160.696H117.388L117.484 163.12H117.532C117.564 163.008 117.636 162.824 117.748 162.568C117.86 162.296 118.036 162.016 118.276 161.728C118.516 161.44 118.828 161.2 119.212 161.008C119.596 160.8 120.084 160.696 120.676 160.696C121.572 160.696 122.228 160.944 122.644 161.44C123.076 161.936 123.364 162.496 123.508 163.12H123.556C123.604 163.008 123.692 162.824 123.82 162.568C123.948 162.296 124.14 162.016 124.396 161.728C124.652 161.44 124.98 161.2 125.38 161.008C125.796 160.8 126.3 160.696 126.892 160.696C127.516 160.696 128.028 160.824 128.428 161.08C128.828 161.32 129.132 161.648 129.34 162.064C129.564 162.464 129.724 162.888 129.82 163.336C129.916 163.784 129.972 164.216 129.988 164.632C130.004 165.048 130.012 165.384 130.012 165.64V170.464H128.668V165.64C128.668 165.384 128.652 165.056 128.62 164.656C128.588 164.256 128.508 163.864 128.38 163.48C128.252 163.08 128.028 162.752 127.708 162.496C127.404 162.224 126.964 162.088 126.388 162.088C125.748 162.088 125.236 162.264 124.852 162.616C124.468 162.968 124.188 163.432 124.012 164.008C123.836 164.568 123.748 165.176 123.748 165.832V170.464H122.404V165.64C122.404 165.384 122.388 165.056 122.356 164.656C122.324 164.256 122.244 163.864 122.116 163.48C121.988 163.08 121.764 162.752 121.444 162.496C121.14 162.224 120.7 162.088 120.124 162.088C119.484 162.088 118.972 162.264 118.588 162.616C118.204 162.968 117.924 163.432 117.748 164.008C117.572 164.568 117.484 165.176 117.484 165.832V170.464H116.068ZM137.36 170.704C136.736 170.704 136.2 170.6 135.752 170.392C135.32 170.168 134.968 169.912 134.696 169.624C134.424 169.336 134.216 169.064 134.072 168.808C133.944 168.552 133.864 168.384 133.832 168.304H133.784V174.496H132.2V160.696H133.52L133.784 163.144H133.832C133.864 163.064 133.944 162.896 134.072 162.64C134.2 162.384 134.392 162.104 134.648 161.8C134.92 161.496 135.272 161.24 135.704 161.032C136.152 160.808 136.704 160.696 137.36 160.696C138.304 160.696 139.088 160.912 139.712 161.344C140.352 161.776 140.832 162.376 141.152 163.144C141.488 163.896 141.656 164.76 141.656 165.736C141.656 167.192 141.288 168.384 140.552 169.312C139.816 170.24 138.752 170.704 137.36 170.704ZM137.048 169.336C137.8 169.336 138.4 169.16 138.848 168.808C139.312 168.456 139.64 168.008 139.832 167.464C140.04 166.904 140.144 166.32 140.144 165.712C140.144 165.088 140.032 164.504 139.808 163.96C139.584 163.416 139.232 162.976 138.752 162.64C138.288 162.288 137.672 162.112 136.904 162.112C135.976 162.112 135.232 162.44 134.672 163.096C134.112 163.736 133.832 164.608 133.832 165.712C133.832 166.832 134.128 167.72 134.72 168.376C135.312 169.016 136.088 169.336 137.048 169.336ZM143.639 170.464V156.952H145.151V170.464H143.639ZM151.75 170.704C150.678 170.704 149.79 170.464 149.086 169.984C148.398 169.488 147.886 168.856 147.55 168.088C147.23 167.304 147.07 166.496 147.07 165.664C147.07 164.752 147.246 163.92 147.598 163.168C147.966 162.4 148.494 161.792 149.182 161.344C149.886 160.896 150.726 160.672 151.702 160.672C152.95 160.672 153.99 161.08 154.822 161.896C155.654 162.696 156.102 163.776 156.166 165.136C156.182 165.2 156.19 165.296 156.19 165.424C156.19 165.536 156.19 165.64 156.19 165.736H148.558C148.558 166.872 148.83 167.768 149.374 168.424C149.934 169.064 150.718 169.384 151.726 169.384C152.478 169.384 153.118 169.192 153.646 168.808C154.19 168.424 154.526 167.904 154.654 167.248H156.166C156.006 168.24 155.534 169.064 154.75 169.72C153.966 170.376 152.966 170.704 151.75 170.704ZM148.606 164.896H154.606C154.606 164.56 154.51 164.16 154.318 163.696C154.142 163.232 153.838 162.832 153.406 162.496C152.99 162.144 152.414 161.968 151.678 161.968C151.006 161.968 150.454 162.112 150.022 162.4C149.59 162.688 149.262 163.056 149.038 163.504C148.814 163.952 148.67 164.416 148.606 164.896ZM157.467 170.464L161.043 165.424L157.635 160.696H159.387L162.027 164.44L164.667 160.696H166.419L163.011 165.424L166.635 170.464H164.859L162.027 166.432L159.195 170.464H157.467ZM179.313 170.704C178.689 170.704 178.153 170.6 177.705 170.392C177.273 170.168 176.921 169.912 176.649 169.624C176.377 169.336 176.169 169.064 176.025 168.808C175.897 168.552 175.817 168.384 175.785 168.304H175.737V174.496H174.153V160.696H175.473L175.737 163.144H175.785C175.817 163.064 175.897 162.896 176.025 162.64C176.153 162.384 176.345 162.104 176.601 161.8C176.873 161.496 177.225 161.24 177.657 161.032C178.105 160.808 178.657 160.696 179.313 160.696C180.257 160.696 181.041 160.912 181.665 161.344C182.305 161.776 182.785 162.376 183.105 163.144C183.441 163.896 183.609 164.76 183.609 165.736C183.609 167.192 183.241 168.384 182.505 169.312C181.769 170.24 180.705 170.704 179.313 170.704ZM179.001 169.336C179.753 169.336 180.353 169.16 180.801 168.808C181.265 168.456 181.593 168.008 181.785 167.464C181.993 166.904 182.097 166.32 182.097 165.712C182.097 165.088 181.985 164.504 181.761 163.96C181.537 163.416 181.185 162.976 180.705 162.64C180.241 162.288 179.625 162.112 178.857 162.112C177.929 162.112 177.185 162.44 176.625 163.096C176.065 163.736 175.785 164.608 175.785 165.712C175.785 166.832 176.081 167.72 176.673 168.376C177.265 169.016 178.041 169.336 179.001 169.336ZM185.496 170.464V160.696H186.888L187.056 163.264C187.152 162.832 187.344 162.416 187.632 162.016C187.92 161.616 188.312 161.296 188.808 161.056C189.32 160.8 189.952 160.68 190.704 160.696H191.16V162.4H190.68C189.656 162.4 188.88 162.552 188.352 162.856C187.84 163.144 187.488 163.552 187.296 164.08C187.12 164.608 187.032 165.216 187.032 165.904V170.464H185.496ZM196.75 170.704C195.182 170.704 194.006 170.24 193.222 169.312C192.454 168.368 192.07 167.168 192.07 165.712C192.054 164.24 192.438 163.04 193.222 162.112C194.022 161.168 195.198 160.688 196.75 160.672C198.286 160.672 199.446 161.136 200.23 162.064C201.03 162.976 201.43 164.192 201.43 165.712C201.43 166.656 201.262 167.504 200.926 168.256C200.59 169.008 200.078 169.608 199.39 170.056C198.702 170.488 197.822 170.704 196.75 170.704ZM196.75 169.36C197.582 169.36 198.222 169.176 198.67 168.808C199.134 168.44 199.454 167.976 199.63 167.416C199.822 166.84 199.918 166.256 199.918 165.664C199.918 165.072 199.822 164.488 199.63 163.912C199.454 163.336 199.134 162.864 198.67 162.496C198.222 162.128 197.582 161.944 196.75 161.944C195.918 161.944 195.27 162.128 194.806 162.496C194.358 162.864 194.038 163.336 193.846 163.912C193.67 164.488 193.582 165.072 193.582 165.664C193.582 166.256 193.67 166.84 193.846 167.416C194.038 167.976 194.358 168.44 194.806 168.808C195.27 169.176 195.918 169.36 196.75 169.36ZM208.727 170.704C208.087 170.704 207.543 170.6 207.095 170.392C206.663 170.168 206.303 169.912 206.015 169.624C205.743 169.336 205.535 169.064 205.391 168.808C205.247 168.552 205.159 168.384 205.127 168.304H205.079L204.839 170.464H203.495V156.952H205.079L205.103 163.144H205.151C205.183 163.064 205.263 162.896 205.391 162.64C205.519 162.384 205.719 162.104 205.991 161.8C206.263 161.496 206.615 161.24 207.047 161.032C207.495 160.808 208.047 160.696 208.703 160.696C209.647 160.696 210.431 160.912 211.055 161.344C211.695 161.776 212.175 162.376 212.495 163.144C212.815 163.896 212.975 164.752 212.975 165.712C212.975 166.672 212.815 167.528 212.495 168.28C212.175 169.032 211.695 169.624 211.055 170.056C210.431 170.488 209.655 170.704 208.727 170.704ZM208.343 169.336C209.111 169.336 209.719 169.16 210.167 168.808C210.615 168.456 210.943 168.008 211.151 167.464C211.359 166.904 211.463 166.32 211.463 165.712C211.463 165.088 211.351 164.504 211.127 163.96C210.903 163.416 210.551 162.976 210.071 162.64C209.591 162.288 208.975 162.112 208.223 162.112C207.279 162.112 206.527 162.44 205.967 163.096C205.407 163.736 205.127 164.608 205.127 165.712C205.127 166.832 205.423 167.72 206.015 168.376C206.623 169.016 207.399 169.336 208.343 169.336ZM215.053 170.464V156.952H216.565V170.464H215.053ZM223.165 170.704C222.093 170.704 221.205 170.464 220.501 169.984C219.813 169.488 219.301 168.856 218.965 168.088C218.645 167.304 218.485 166.496 218.485 165.664C218.485 164.752 218.661 163.92 219.013 163.168C219.381 162.4 219.909 161.792 220.597 161.344C221.301 160.896 222.141 160.672 223.117 160.672C224.365 160.672 225.405 161.08 226.237 161.896C227.069 162.696 227.517 163.776 227.581 165.136C227.597 165.2 227.605 165.296 227.605 165.424C227.605 165.536 227.605 165.64 227.605 165.736H219.973C219.973 166.872 220.245 167.768 220.789 168.424C221.349 169.064 222.133 169.384 223.141 169.384C223.893 169.384 224.533 169.192 225.061 168.808C225.605 168.424 225.941 167.904 226.069 167.248H227.581C227.421 168.24 226.949 169.064 226.165 169.72C225.381 170.376 224.381 170.704 223.165 170.704ZM220.021 164.896H226.021C226.021 164.56 225.925 164.16 225.733 163.696C225.557 163.232 225.253 162.832 224.821 162.496C224.405 162.144 223.829 161.968 223.093 161.968C222.421 161.968 221.869 162.112 221.437 162.4C221.005 162.688 220.677 163.056 220.453 163.504C220.229 163.952 220.085 164.416 220.021 164.896ZM229.553 170.464V160.696H230.873L230.969 163.12H231.017C231.049 163.008 231.121 162.824 231.233 162.568C231.345 162.296 231.521 162.016 231.761 161.728C232.001 161.44 232.313 161.2 232.697 161.008C233.081 160.8 233.569 160.696 234.161 160.696C235.057 160.696 235.713 160.944 236.129 161.44C236.561 161.936 236.849 162.496 236.993 163.12H237.041C237.089 163.008 237.177 162.824 237.305 162.568C237.433 162.296 237.625 162.016 237.881 161.728C238.137 161.44 238.465 161.2 238.865 161.008C239.281 160.8 239.785 160.696 240.377 160.696C241.001 160.696 241.513 160.824 241.913 161.08C242.313 161.32 242.617 161.648 242.825 162.064C243.049 162.464 243.209 162.888 243.305 163.336C243.401 163.784 243.457 164.216 243.473 164.632C243.489 165.048 243.497 165.384 243.497 165.64V170.464H242.153V165.64C242.153 165.384 242.137 165.056 242.105 164.656C242.073 164.256 241.993 163.864 241.865 163.48C241.737 163.08 241.513 162.752 241.193 162.496C240.889 162.224 240.449 162.088 239.873 162.088C239.233 162.088 238.721 162.264 238.337 162.616C237.953 162.968 237.673 163.432 237.497 164.008C237.321 164.568 237.233 165.176 237.233 165.832V170.464H235.889V165.64C235.889 165.384 235.873 165.056 235.841 164.656C235.809 164.256 235.729 163.864 235.601 163.48C235.473 163.08 235.249 162.752 234.929 162.496C234.625 162.224 234.185 162.088 233.609 162.088C232.969 162.088 232.457 162.264 232.073 162.616C231.689 162.968 231.409 163.432 231.233 164.008C231.057 164.568 230.969 165.176 230.969 165.832V170.464H229.553ZM249.284 170.704C248.356 170.704 247.588 170.512 246.98 170.128C246.388 169.728 245.94 169.264 245.636 168.736C245.348 168.208 245.204 167.736 245.204 167.32H246.692C246.692 167.336 246.7 167.456 246.716 167.68C246.748 167.904 246.836 168.16 246.98 168.448C247.124 168.736 247.372 168.992 247.724 169.216C248.076 169.424 248.588 169.528 249.26 169.528C249.98 169.528 250.596 169.4 251.108 169.144C251.636 168.888 251.892 168.488 251.876 167.944C251.876 167.48 251.716 167.128 251.396 166.888C251.092 166.632 250.692 166.44 250.196 166.312C249.7 166.168 249.18 166.032 248.636 165.904C248.092 165.776 247.572 165.616 247.076 165.424C246.596 165.216 246.204 164.928 245.9 164.56C245.596 164.192 245.444 163.68 245.444 163.024C245.444 162.224 245.804 161.592 246.524 161.128C247.244 160.648 248.164 160.408 249.284 160.408C249.908 160.408 250.54 160.512 251.18 160.72C251.82 160.912 252.348 161.256 252.764 161.752C253.18 162.232 253.372 162.912 253.34 163.792H251.9C251.932 163.184 251.796 162.728 251.492 162.424C251.188 162.12 250.82 161.92 250.388 161.824C249.972 161.712 249.588 161.656 249.236 161.656C248.548 161.656 247.98 161.784 247.532 162.04C247.1 162.296 246.884 162.656 246.884 163.12C246.884 163.568 247.036 163.912 247.34 164.152C247.66 164.376 248.06 164.56 248.54 164.704C249.036 164.832 249.556 164.96 250.1 165.088C250.66 165.2 251.188 165.36 251.684 165.568C252.18 165.776 252.58 166.072 252.884 166.456C253.204 166.84 253.364 167.368 253.364 168.04C253.364 168.968 252.972 169.648 252.188 170.08C251.404 170.496 250.436 170.704 249.284 170.704Z" fill="#333333"/>
<path d="M1054.44 158.296V156.952H1064.64V158.296H1060.32V170.464H1058.78V158.296H1054.44ZM1068.45 170.704C1066.89 170.704 1065.71 170.24 1064.93 169.312C1064.16 168.368 1063.77 167.168 1063.77 165.712C1063.76 164.24 1064.14 163.04 1064.93 162.112C1065.73 161.168 1066.9 160.688 1068.45 160.672C1069.99 160.672 1071.15 161.136 1071.93 162.064C1072.73 162.976 1073.13 164.192 1073.13 165.712C1073.13 166.656 1072.97 167.504 1072.63 168.256C1072.29 169.008 1071.78 169.608 1071.09 170.056C1070.41 170.488 1069.53 170.704 1068.45 170.704ZM1068.45 169.36C1069.29 169.36 1069.93 169.176 1070.37 168.808C1070.84 168.44 1071.16 167.976 1071.33 167.416C1071.53 166.84 1071.62 166.256 1071.62 165.664C1071.62 165.072 1071.53 164.488 1071.33 163.912C1071.16 163.336 1070.84 162.864 1070.37 162.496C1069.93 162.128 1069.29 161.944 1068.45 161.944C1067.62 161.944 1066.97 162.128 1066.51 162.496C1066.06 162.864 1065.74 163.336 1065.55 163.912C1065.37 164.488 1065.29 165.072 1065.29 165.664C1065.29 166.256 1065.37 166.84 1065.55 167.416C1065.74 167.976 1066.06 168.44 1066.51 168.808C1066.97 169.176 1067.62 169.36 1068.45 169.36ZM1081.28 170.464V156.952H1085.74C1087.45 156.952 1088.77 157.224 1089.7 157.768C1090.65 158.312 1091.12 159.328 1091.12 160.816C1091.12 161.776 1090.85 162.608 1090.33 163.312C1089.81 164 1089.02 164.344 1087.95 164.344C1088.62 164.344 1089.12 164.488 1089.44 164.776C1089.77 165.064 1090 165.432 1090.11 165.88C1090.24 166.312 1090.31 166.768 1090.33 167.248C1090.34 167.712 1090.37 168.136 1090.42 168.52C1090.47 168.904 1090.58 169.184 1090.76 169.36C1090.95 169.536 1091.27 169.544 1091.72 169.384V170.392C1091.57 170.52 1091.35 170.608 1091.05 170.656C1090.76 170.72 1090.45 170.704 1090.13 170.608C1089.81 170.512 1089.54 170.296 1089.32 169.96C1089.11 169.624 1089.01 169.128 1089.01 168.472C1089.01 167.48 1088.95 166.712 1088.84 166.168C1088.73 165.624 1088.47 165.24 1088.07 165.016C1087.69 164.792 1087.08 164.664 1086.25 164.632C1085.41 164.6 1084.28 164.6 1082.84 164.632V170.464H1081.28ZM1082.84 163.456H1085.98C1087.25 163.456 1088.18 163.288 1088.79 162.952C1089.41 162.616 1089.73 161.936 1089.73 160.912C1089.73 160.112 1089.56 159.528 1089.22 159.16C1088.89 158.776 1088.4 158.536 1087.76 158.44C1087.13 158.328 1086.36 158.272 1085.43 158.272H1082.84V163.456ZM1097.89 170.704C1096.82 170.704 1095.93 170.464 1095.23 169.984C1094.54 169.488 1094.03 168.856 1093.69 168.088C1093.37 167.304 1093.21 166.496 1093.21 165.664C1093.21 164.752 1093.39 163.92 1093.74 163.168C1094.11 162.4 1094.64 161.792 1095.32 161.344C1096.03 160.896 1096.87 160.672 1097.84 160.672C1099.09 160.672 1100.13 161.08 1100.96 161.896C1101.8 162.696 1102.24 163.776 1102.31 165.136C1102.32 165.2 1102.33 165.296 1102.33 165.424C1102.33 165.536 1102.33 165.64 1102.33 165.736H1094.7C1094.7 166.872 1094.97 167.768 1095.52 168.424C1096.08 169.064 1096.86 169.384 1097.87 169.384C1098.62 169.384 1099.26 169.192 1099.79 168.808C1100.33 168.424 1100.67 167.904 1100.8 167.248H1102.31C1102.15 168.24 1101.68 169.064 1100.89 169.72C1100.11 170.376 1099.11 170.704 1097.89 170.704ZM1094.75 164.896H1100.75C1100.75 164.56 1100.65 164.16 1100.46 163.696C1100.28 163.232 1099.98 162.832 1099.55 162.496C1099.13 162.144 1098.56 161.968 1097.82 161.968C1097.15 161.968 1096.6 162.112 1096.16 162.4C1095.73 162.688 1095.4 163.056 1095.18 163.504C1094.96 163.952 1094.81 164.416 1094.75 164.896ZM1107.71 170.68C1106.82 170.68 1106.08 170.464 1105.5 170.032C1104.93 169.584 1104.5 168.984 1104.21 168.232C1103.94 167.48 1103.8 166.624 1103.8 165.664C1103.8 164.192 1104.12 162.984 1104.76 162.04C1105.42 161.08 1106.4 160.6 1107.71 160.6C1108.38 160.6 1108.94 160.72 1109.39 160.96C1109.86 161.184 1110.22 161.464 1110.5 161.8C1110.78 162.136 1110.99 162.456 1111.12 162.76H1111.14V160.696H1112.73V170.464H1111.41L1111.17 168.568H1111.12C1110.98 168.888 1110.77 169.216 1110.5 169.552C1110.22 169.872 1109.86 170.144 1109.39 170.368C1108.94 170.576 1108.38 170.68 1107.71 170.68ZM1108.31 169.312C1109.3 169.312 1110.02 168.984 1110.45 168.328C1110.9 167.672 1111.12 166.792 1111.12 165.688C1111.12 164.504 1110.89 163.6 1110.42 162.976C1109.98 162.352 1109.27 162.04 1108.31 162.04C1107.26 162.04 1106.5 162.392 1106.03 163.096C1105.58 163.784 1105.36 164.64 1105.36 165.664C1105.36 166.736 1105.59 167.616 1106.06 168.304C1106.52 168.976 1107.27 169.312 1108.31 169.312ZM1119.01 170.704C1118.1 170.704 1117.28 170.512 1116.56 170.128C1115.84 169.744 1115.27 169.184 1114.86 168.448C1114.44 167.712 1114.23 166.824 1114.23 165.784C1114.27 164.76 1114.48 163.864 1114.88 163.096C1115.3 162.328 1115.87 161.736 1116.59 161.32C1117.31 160.888 1118.13 160.672 1119.06 160.672C1119.92 160.672 1120.67 160.832 1121.31 161.152C1121.95 161.472 1122.47 161.904 1122.85 162.448C1123.23 162.992 1123.47 163.592 1123.57 164.248H1122.15C1121.99 163.544 1121.64 163 1121.1 162.616C1120.57 162.232 1119.91 162.04 1119.11 162.04C1118.08 162.04 1117.27 162.384 1116.66 163.072C1116.07 163.744 1115.76 164.624 1115.75 165.712C1115.75 166.816 1116.03 167.696 1116.61 168.352C1117.2 168.992 1118.03 169.312 1119.08 169.312C1119.85 169.312 1120.51 169.12 1121.07 168.736C1121.63 168.352 1121.99 167.8 1122.15 167.08H1123.57C1123.47 167.752 1123.23 168.36 1122.83 168.904C1122.44 169.448 1121.92 169.888 1121.27 170.224C1120.63 170.544 1119.87 170.704 1119.01 170.704ZM1125.47 170.464V156.952H1127.03V163.12H1127.08C1127.11 163.04 1127.18 162.872 1127.29 162.616C1127.42 162.36 1127.61 162.088 1127.87 161.8C1128.12 161.496 1128.47 161.24 1128.9 161.032C1129.33 160.808 1129.88 160.696 1130.53 160.696C1131.36 160.696 1132.03 160.856 1132.52 161.176C1133.02 161.48 1133.39 161.888 1133.63 162.4C1133.88 162.896 1134.05 163.432 1134.13 164.008C1134.21 164.584 1134.25 165.128 1134.25 165.64V170.464H1132.74V165.64C1132.74 164.584 1132.56 163.728 1132.19 163.072C1131.84 162.416 1131.14 162.088 1130.1 162.088C1129.36 162.088 1128.77 162.264 1128.32 162.616C1127.88 162.952 1127.55 163.408 1127.34 163.984C1127.13 164.544 1127.03 165.16 1127.03 165.832V170.464H1125.47ZM1141.27 158.296V156.952H1151.47V158.296H1147.15V170.464H1145.62V158.296H1141.27ZM1152.82 170.464V156.952H1154.38V163.12H1154.43C1154.46 163.04 1154.53 162.872 1154.64 162.616C1154.77 162.36 1154.96 162.088 1155.22 161.8C1155.48 161.496 1155.82 161.24 1156.25 161.032C1156.68 160.808 1157.23 160.696 1157.88 160.696C1158.72 160.696 1159.38 160.856 1159.88 161.176C1160.37 161.48 1160.74 161.888 1160.98 162.4C1161.24 162.896 1161.4 163.432 1161.48 164.008C1161.56 164.584 1161.6 165.128 1161.6 165.64V170.464H1160.09V165.64C1160.09 164.584 1159.91 163.728 1159.54 163.072C1159.19 162.416 1158.49 162.088 1157.45 162.088C1156.72 162.088 1156.12 162.264 1155.68 162.616C1155.23 162.952 1154.9 163.408 1154.69 163.984C1154.48 164.544 1154.38 165.16 1154.38 165.832V170.464H1152.82ZM1168.04 170.704C1166.97 170.704 1166.08 170.464 1165.38 169.984C1164.69 169.488 1164.18 168.856 1163.84 168.088C1163.52 167.304 1163.36 166.496 1163.36 165.664C1163.36 164.752 1163.54 163.92 1163.89 163.168C1164.26 162.4 1164.78 161.792 1165.47 161.344C1166.18 160.896 1167.02 160.672 1167.99 160.672C1169.24 160.672 1170.28 161.08 1171.11 161.896C1171.94 162.696 1172.39 163.776 1172.46 165.136C1172.47 165.2 1172.48 165.296 1172.48 165.424C1172.48 165.536 1172.48 165.64 1172.48 165.736H1164.85C1164.85 166.872 1165.12 167.768 1165.66 168.424C1166.22 169.064 1167.01 169.384 1168.02 169.384C1168.77 169.384 1169.41 169.192 1169.94 168.808C1170.48 168.424 1170.82 167.904 1170.94 167.248H1172.46C1172.3 168.24 1171.82 169.064 1171.04 169.72C1170.26 170.376 1169.26 170.704 1168.04 170.704ZM1164.9 164.896H1170.9C1170.9 164.56 1170.8 164.16 1170.61 163.696C1170.43 163.232 1170.13 162.832 1169.7 162.496C1169.28 162.144 1168.7 161.968 1167.97 161.968C1167.3 161.968 1166.74 162.112 1166.31 162.4C1165.88 162.688 1165.55 163.056 1165.33 163.504C1165.1 163.952 1164.96 164.416 1164.9 164.896ZM1175.65 159.64C1175.3 159.64 1175.06 159.552 1174.93 159.376C1174.82 159.184 1174.76 158.944 1174.76 158.656C1174.76 158.416 1174.82 158.208 1174.93 158.032C1175.06 157.84 1175.3 157.744 1175.65 157.744C1176 157.744 1176.24 157.84 1176.35 158.032C1176.48 158.208 1176.54 158.416 1176.54 158.656C1176.54 158.944 1176.48 159.184 1176.35 159.376C1176.24 159.552 1176 159.64 1175.65 159.64ZM1174.88 170.464V160.696H1176.42V170.464H1174.88ZM1178.91 170.464V160.696H1180.3L1180.47 163.264C1180.57 162.832 1180.76 162.416 1181.05 162.016C1181.33 161.616 1181.73 161.296 1182.22 161.056C1182.73 160.8 1183.37 160.68 1184.12 160.696H1184.57V162.4H1184.09C1183.07 162.4 1182.29 162.552 1181.77 162.856C1181.25 163.144 1180.9 163.552 1180.71 164.08C1180.53 164.608 1180.45 165.216 1180.45 165.904V170.464H1178.91ZM1197.68 170.776C1196.38 170.776 1195.26 170.504 1194.3 169.96C1193.34 169.4 1192.59 168.6 1192.06 167.56C1191.55 166.52 1191.3 165.256 1191.3 163.768C1191.31 162.28 1191.59 161.008 1192.14 159.952C1192.7 158.896 1193.47 158.096 1194.46 157.552C1195.46 156.992 1196.62 156.712 1197.94 156.712C1199.66 156.712 1201.02 157.112 1202.05 157.912C1203.09 158.696 1203.75 159.848 1204.04 161.368L1202.55 161.56C1202.3 160.376 1201.76 159.512 1200.94 158.968C1200.13 158.424 1199.13 158.152 1197.94 158.152C1196.23 158.152 1194.96 158.64 1194.13 159.616C1193.3 160.592 1192.85 161.952 1192.78 163.696C1192.78 165.472 1193.24 166.848 1194.15 167.824C1195.08 168.8 1196.37 169.288 1198.02 169.288C1199.28 169.288 1200.34 168.952 1201.18 168.28C1202.05 167.608 1202.55 166.616 1202.7 165.304H1198.98V164.104H1204.33V170.464H1203.22L1202.86 167.488H1202.82C1202.69 167.92 1202.42 168.392 1202.02 168.904C1201.62 169.416 1201.06 169.856 1200.34 170.224C1199.64 170.592 1198.75 170.776 1197.68 170.776ZM1210.65 170.704C1209.08 170.704 1207.9 170.24 1207.12 169.312C1206.35 168.368 1205.97 167.168 1205.97 165.712C1205.95 164.24 1206.34 163.04 1207.12 162.112C1207.92 161.168 1209.1 160.688 1210.65 160.672C1212.18 160.672 1213.34 161.136 1214.13 162.064C1214.93 162.976 1215.33 164.192 1215.33 165.712C1215.33 166.656 1215.16 167.504 1214.82 168.256C1214.49 169.008 1213.98 169.608 1213.29 170.056C1212.6 170.488 1211.72 170.704 1210.65 170.704ZM1210.65 169.36C1211.48 169.36 1212.12 169.176 1212.57 168.808C1213.03 168.44 1213.35 167.976 1213.53 167.416C1213.72 166.84 1213.82 166.256 1213.82 165.664C1213.82 165.072 1213.72 164.488 1213.53 163.912C1213.35 163.336 1213.03 162.864 1212.57 162.496C1212.12 162.128 1211.48 161.944 1210.65 161.944C1209.82 161.944 1209.17 162.128 1208.7 162.496C1208.26 162.864 1207.94 163.336 1207.74 163.912C1207.57 164.488 1207.48 165.072 1207.48 165.664C1207.48 166.256 1207.57 166.84 1207.74 167.416C1207.94 167.976 1208.26 168.44 1208.7 168.808C1209.17 169.176 1209.82 169.36 1210.65 169.36ZM1220.63 170.68C1219.74 170.68 1219 170.464 1218.43 170.032C1217.85 169.584 1217.42 168.984 1217.13 168.232C1216.86 167.48 1216.72 166.624 1216.72 165.664C1216.72 164.192 1217.04 162.984 1217.68 162.04C1218.34 161.08 1219.32 160.6 1220.63 160.6C1221.31 160.6 1221.87 160.72 1222.31 160.96C1222.78 161.184 1223.15 161.464 1223.42 161.8C1223.71 162.136 1223.91 162.456 1224.04 162.76H1224.07V160.696H1225.65V170.464H1224.33L1224.09 168.568H1224.04C1223.9 168.888 1223.69 169.216 1223.42 169.552C1223.15 169.872 1222.78 170.144 1222.31 170.368C1221.87 170.576 1221.31 170.68 1220.63 170.68ZM1221.23 169.312C1222.23 169.312 1222.94 168.984 1223.37 168.328C1223.82 167.672 1224.04 166.792 1224.04 165.688C1224.04 164.504 1223.81 163.6 1223.35 162.976C1222.9 162.352 1222.19 162.04 1221.23 162.04C1220.18 162.04 1219.42 162.392 1218.95 163.096C1218.51 163.784 1218.28 164.64 1218.28 165.664C1218.28 166.736 1218.51 167.616 1218.98 168.304C1219.44 168.976 1220.19 169.312 1221.23 169.312ZM1227.78 170.464V156.952H1229.29V170.464H1227.78ZM1235.34 170.704C1234.41 170.704 1233.64 170.512 1233.04 170.128C1232.44 169.728 1232 169.264 1231.69 168.736C1231.4 168.208 1231.26 167.736 1231.26 167.32H1232.75C1232.75 167.336 1232.76 167.456 1232.77 167.68C1232.8 167.904 1232.89 168.16 1233.04 168.448C1233.18 168.736 1233.43 168.992 1233.78 169.216C1234.13 169.424 1234.64 169.528 1235.32 169.528C1236.04 169.528 1236.65 169.4 1237.16 169.144C1237.69 168.888 1237.95 168.488 1237.93 167.944C1237.93 167.48 1237.77 167.128 1237.45 166.888C1237.15 166.632 1236.75 166.44 1236.25 166.312C1235.76 166.168 1235.24 166.032 1234.69 165.904C1234.15 165.776 1233.63 165.616 1233.13 165.424C1232.65 165.216 1232.26 164.928 1231.96 164.56C1231.65 164.192 1231.5 163.68 1231.5 163.024C1231.5 162.224 1231.86 161.592 1232.58 161.128C1233.3 160.648 1234.22 160.408 1235.34 160.408C1235.96 160.408 1236.6 160.512 1237.24 160.72C1237.88 160.912 1238.4 161.256 1238.82 161.752C1239.24 162.232 1239.43 162.912 1239.4 163.792H1237.96C1237.99 163.184 1237.85 162.728 1237.55 162.424C1237.24 162.12 1236.88 161.92 1236.44 161.824C1236.03 161.712 1235.64 161.656 1235.29 161.656C1234.6 161.656 1234.04 161.784 1233.59 162.04C1233.16 162.296 1232.94 162.656 1232.94 163.12C1232.94 163.568 1233.09 163.912 1233.4 164.152C1233.72 164.376 1234.12 164.56 1234.6 164.704C1235.09 164.832 1235.61 164.96 1236.16 165.088C1236.72 165.2 1237.24 165.36 1237.74 165.568C1238.24 165.776 1238.64 166.072 1238.94 166.456C1239.26 166.84 1239.42 167.368 1239.42 168.04C1239.42 168.968 1239.03 169.648 1238.24 170.08C1237.46 170.496 1236.49 170.704 1235.34 170.704Z" fill="#333333"/>
<path d="M280.453 22.8884C280.453 24.2204 280.201 25.2584 279.697 26.0024C279.193 26.7344 278.485 27.2444 277.573 27.5324C276.661 27.8204 275.593 27.9644 274.369 27.9644H271.687V17.8304H274.369C275.593 17.8304 276.661 18.0224 277.573 18.4064C278.485 18.7784 279.193 19.3364 279.697 20.0804C280.201 20.8244 280.453 21.7604 280.453 22.8884ZM272.839 26.9744H274.621C275.557 26.9744 276.367 26.8724 277.051 26.6684C277.747 26.4524 278.281 26.0504 278.653 25.4624C279.037 24.8744 279.229 24.0164 279.229 22.8884C279.229 21.5084 278.809 20.4944 277.969 19.8464C277.129 19.1864 276.013 18.8564 274.621 18.8564H272.839V26.9744ZM282.665 19.8464C282.401 19.8464 282.221 19.7804 282.125 19.6484C282.041 19.5044 281.999 19.3244 281.999 19.1084C281.999 18.9284 282.041 18.7724 282.125 18.6404C282.221 18.4964 282.401 18.4244 282.665 18.4244C282.929 18.4244 283.103 18.4964 283.187 18.6404C283.283 18.7724 283.331 18.9284 283.331 19.1084C283.331 19.3244 283.283 19.5044 283.187 19.6484C283.103 19.7804 282.929 19.8464 282.665 19.8464ZM282.089 27.9644V20.6384H283.241V27.9644H282.089ZM287.845 28.1444C287.149 28.1444 286.573 28.0004 286.117 27.7124C285.673 27.4124 285.337 27.0644 285.109 26.6684C284.893 26.2724 284.785 25.9184 284.785 25.6064H285.901C285.901 25.6184 285.907 25.7084 285.919 25.8764C285.943 26.0444 286.009 26.2364 286.117 26.4524C286.225 26.6684 286.411 26.8604 286.675 27.0284C286.939 27.1844 287.323 27.2624 287.827 27.2624C288.367 27.2624 288.829 27.1664 289.213 26.9744C289.609 26.7824 289.801 26.4824 289.789 26.0744C289.789 25.7264 289.669 25.4624 289.429 25.2824C289.201 25.0904 288.901 24.9464 288.529 24.8504C288.157 24.7424 287.767 24.6404 287.359 24.5444C286.951 24.4484 286.561 24.3284 286.189 24.1844C285.829 24.0284 285.535 23.8124 285.307 23.5364C285.079 23.2604 284.965 22.8764 284.965 22.3844C284.965 21.7844 285.235 21.3104 285.775 20.9624C286.315 20.6024 287.005 20.4224 287.845 20.4224C288.313 20.4224 288.787 20.5004 289.267 20.6564C289.747 20.8004 290.143 21.0584 290.455 21.4304C290.767 21.7904 290.911 22.3004 290.887 22.9604H289.807C289.831 22.5044 289.729 22.1624 289.501 21.9344C289.273 21.7064 288.997 21.5564 288.673 21.4844C288.361 21.4004 288.073 21.3584 287.809 21.3584C287.293 21.3584 286.867 21.4544 286.531 21.6464C286.207 21.8384 286.045 22.1084 286.045 22.4564C286.045 22.7924 286.159 23.0504 286.387 23.2304C286.627 23.3984 286.927 23.5364 287.287 23.6444C287.659 23.7404 288.049 23.8364 288.457 23.9324C288.877 24.0164 289.273 24.1364 289.645 24.2924C290.017 24.4484 290.317 24.6704 290.545 24.9584C290.785 25.2464 290.905 25.6424 290.905 26.1464C290.905 26.8424 290.611 27.3524 290.023 27.6764C289.435 27.9884 288.709 28.1444 287.845 28.1444ZM295.537 28.1444C294.853 28.1444 294.241 28.0004 293.701 27.7124C293.161 27.4244 292.735 27.0044 292.423 26.4524C292.111 25.9004 291.955 25.2344 291.955 24.4544C291.979 23.6864 292.141 23.0144 292.441 22.4384C292.753 21.8624 293.179 21.4184 293.719 21.1064C294.259 20.7824 294.877 20.6204 295.573 20.6204C296.221 20.6204 296.785 20.7404 297.265 20.9804C297.745 21.2204 298.129 21.5444 298.417 21.9524C298.705 22.3604 298.885 22.8104 298.957 23.3024H297.895C297.775 22.7744 297.511 22.3664 297.103 22.0784C296.707 21.7904 296.209 21.6464 295.609 21.6464C294.841 21.6464 294.229 21.9044 293.773 22.4204C293.329 22.9244 293.101 23.5844 293.089 24.4004C293.089 25.2284 293.305 25.8884 293.737 26.3804C294.181 26.8604 294.799 27.1004 295.591 27.1004C296.167 27.1004 296.665 26.9564 297.085 26.6684C297.505 26.3804 297.775 25.9664 297.895 25.4264H298.957C298.885 25.9304 298.699 26.3864 298.399 26.7944C298.111 27.2024 297.721 27.5324 297.229 27.7844C296.749 28.0244 296.185 28.1444 295.537 28.1444ZM303.622 28.1444C302.446 28.1444 301.564 27.7964 300.976 27.1004C300.4 26.3924 300.112 25.4924 300.112 24.4004C300.1 23.2964 300.388 22.3964 300.976 21.7004C301.576 20.9924 302.458 20.6324 303.622 20.6204C304.774 20.6204 305.644 20.9684 306.232 21.6644C306.832 22.3484 307.132 23.2604 307.132 24.4004C307.132 25.1084 307.006 25.7444 306.754 26.3084C306.502 26.8724 306.118 27.3224 305.602 27.6584C305.086 27.9824 304.426 28.1444 303.622 28.1444ZM303.622 27.1364C304.246 27.1364 304.726 26.9984 305.062 26.7224C305.41 26.4464 305.65 26.0984 305.782 25.6784C305.926 25.2464 305.998 24.8084 305.998 24.3644C305.998 23.9204 305.926 23.4824 305.782 23.0504C305.65 22.6184 305.41 22.2644 305.062 21.9884C304.726 21.7124 304.246 21.5744 303.622 21.5744C302.998 21.5744 302.512 21.7124 302.164 21.9884C301.828 22.2644 301.588 22.6184 301.444 23.0504C301.312 23.4824 301.246 23.9204 301.246 24.3644C301.246 24.8084 301.312 25.2464 301.444 25.6784C301.588 26.0984 301.828 26.4464 302.164 26.7224C302.512 26.9984 302.998 27.1364 303.622 27.1364ZM313.775 20.6384H314.927V20.8904L312.155 27.9644H310.517L307.727 20.8904V20.6384H308.879L311.327 27.0104H311.363L313.775 20.6384ZM319.161 28.1444C318.357 28.1444 317.691 27.9644 317.163 27.6044C316.647 27.2324 316.263 26.7584 316.011 26.1824C315.771 25.5944 315.651 24.9884 315.651 24.3644C315.651 23.6804 315.783 23.0564 316.047 22.4924C316.323 21.9164 316.719 21.4604 317.235 21.1244C317.763 20.7884 318.393 20.6204 319.125 20.6204C320.061 20.6204 320.841 20.9264 321.465 21.5384C322.089 22.1384 322.425 22.9484 322.473 23.9684C322.485 24.0164 322.491 24.0884 322.491 24.1844C322.491 24.2684 322.491 24.3464 322.491 24.4184H316.767C316.767 25.2704 316.971 25.9424 317.379 26.4344C317.799 26.9144 318.387 27.1544 319.143 27.1544C319.707 27.1544 320.187 27.0104 320.583 26.7224C320.991 26.4344 321.243 26.0444 321.339 25.5524H322.473C322.353 26.2964 321.999 26.9144 321.411 27.4064C320.823 27.8984 320.073 28.1444 319.161 28.1444ZM316.803 23.7884H321.303C321.303 23.5364 321.231 23.2364 321.087 22.8884C320.955 22.5404 320.727 22.2404 320.403 21.9884C320.091 21.7244 319.659 21.5924 319.107 21.5924C318.603 21.5924 318.189 21.7004 317.865 21.9164C317.541 22.1324 317.295 22.4084 317.127 22.7444C316.959 23.0804 316.851 23.4284 316.803 23.7884ZM324.133 27.9644V20.6384H325.177L325.303 22.5644C325.375 22.2404 325.519 21.9284 325.735 21.6284C325.951 21.3284 326.245 21.0884 326.617 20.9084C327.001 20.7164 327.475 20.6264 328.039 20.6384H328.381V21.9164H328.021C327.253 21.9164 326.671 22.0304 326.275 22.2584C325.891 22.4744 325.627 22.7804 325.483 23.1764C325.351 23.5724 325.285 24.0284 325.285 24.5444V27.9644H324.133Z" fill="#333333"/>
<path d="M489.453 79.8884C489.453 81.2204 489.201 82.2584 488.697 83.0024C488.193 83.7344 487.485 84.2444 486.573 84.5324C485.661 84.8204 484.593 84.9644 483.369 84.9644H480.687V74.8304H483.369C484.593 74.8304 485.661 75.0224 486.573 75.4064C487.485 75.7784 488.193 76.3364 488.697 77.0804C489.201 77.8244 489.453 78.7604 489.453 79.8884ZM481.839 83.9744H483.621C484.557 83.9744 485.367 83.8724 486.051 83.6684C486.747 83.4524 487.281 83.0504 487.653 82.4624C488.037 81.8744 488.229 81.0164 488.229 79.8884C488.229 78.5084 487.809 77.4944 486.969 76.8464C486.129 76.1864 485.013 75.8564 483.621 75.8564H481.839V83.9744ZM494.077 85.1444C493.273 85.1444 492.607 84.9644 492.079 84.6044C491.563 84.2324 491.179 83.7584 490.927 83.1824C490.687 82.5944 490.567 81.9884 490.567 81.3644C490.567 80.6804 490.699 80.0564 490.963 79.4924C491.239 78.9164 491.635 78.4604 492.151 78.1244C492.679 77.7884 493.309 77.6204 494.041 77.6204C494.977 77.6204 495.757 77.9264 496.381 78.5384C497.005 79.1384 497.341 79.9484 497.389 80.9684C497.401 81.0164 497.407 81.0884 497.407 81.1844C497.407 81.2684 497.407 81.3464 497.407 81.4184H491.683C491.683 82.2704 491.887 82.9424 492.295 83.4344C492.715 83.9144 493.303 84.1544 494.059 84.1544C494.623 84.1544 495.103 84.0104 495.499 83.7224C495.907 83.4344 496.159 83.0444 496.255 82.5524H497.389C497.269 83.2964 496.915 83.9144 496.327 84.4064C495.739 84.8984 494.989 85.1444 494.077 85.1444ZM491.719 80.7884H496.219C496.219 80.5364 496.147 80.2364 496.003 79.8884C495.871 79.5404 495.643 79.2404 495.319 78.9884C495.007 78.7244 494.575 78.5924 494.023 78.5924C493.519 78.5924 493.105 78.7004 492.781 78.9164C492.457 79.1324 492.211 79.4084 492.043 79.7444C491.875 80.0804 491.767 80.4284 491.719 80.7884ZM499.553 85.0184V78.5024H498.419V77.6384H499.553V76.0184C499.553 75.5984 499.637 75.2684 499.805 75.0284C499.985 74.7884 500.297 74.6684 500.741 74.6684H502.919V75.6224H500.723V77.6384H502.793V78.5024H500.723V85.0184H499.553ZM505.06 76.8464C504.796 76.8464 504.616 76.7804 504.52 76.6484C504.436 76.5044 504.394 76.3244 504.394 76.1084C504.394 75.9284 504.436 75.7724 504.52 75.6404C504.616 75.4964 504.796 75.4244 505.06 75.4244C505.324 75.4244 505.498 75.4964 505.582 75.6404C505.678 75.7724 505.726 75.9284 505.726 76.1084C505.726 76.3244 505.678 76.5044 505.582 76.6484C505.498 76.7804 505.324 76.8464 505.06 76.8464ZM504.484 84.9644V77.6384H505.636V84.9644H504.484ZM507.324 84.9644V77.6384H508.314L508.512 79.4564H508.548C508.56 79.3964 508.614 79.2704 508.71 79.0784C508.806 78.8864 508.95 78.6824 509.142 78.4664C509.346 78.2384 509.61 78.0464 509.934 77.8904C510.258 77.7224 510.672 77.6384 511.176 77.6384C511.812 77.6384 512.31 77.7524 512.67 77.9804C513.042 78.2084 513.318 78.5144 513.498 78.8984C513.678 79.2704 513.792 79.6724 513.84 80.1044C513.888 80.5364 513.912 80.9504 513.912 81.3464V84.9644H512.796V81.3464C512.796 80.5544 512.658 79.9124 512.382 79.4204C512.118 78.9284 511.59 78.6824 510.798 78.6824C510.258 78.6824 509.814 78.8144 509.466 79.0784C509.13 79.3304 508.884 79.6724 508.728 80.1044C508.584 80.5244 508.512 80.9864 508.512 81.4904V84.9644H507.324ZM518.687 85.1444C517.883 85.1444 517.217 84.9644 516.689 84.6044C516.173 84.2324 515.789 83.7584 515.537 83.1824C515.297 82.5944 515.177 81.9884 515.177 81.3644C515.177 80.6804 515.309 80.0564 515.573 79.4924C515.849 78.9164 516.245 78.4604 516.761 78.1244C517.289 77.7884 517.919 77.6204 518.651 77.6204C519.587 77.6204 520.367 77.9264 520.991 78.5384C521.615 79.1384 521.951 79.9484 521.999 80.9684C522.011 81.0164 522.017 81.0884 522.017 81.1844C522.017 81.2684 522.017 81.3464 522.017 81.4184H516.293C516.293 82.2704 516.497 82.9424 516.905 83.4344C517.325 83.9144 517.913 84.1544 518.669 84.1544C519.233 84.1544 519.713 84.0104 520.109 83.7224C520.517 83.4344 520.769 83.0444 520.865 82.5524H521.999C521.879 83.2964 521.525 83.9144 520.937 84.4064C520.349 84.8984 519.599 85.1444 518.687 85.1444ZM516.329 80.7884H520.829C520.829 80.5364 520.757 80.2364 520.613 79.8884C520.481 79.5404 520.253 79.2404 519.929 78.9884C519.617 78.7244 519.185 78.5924 518.633 78.5924C518.129 78.5924 517.715 78.7004 517.391 78.9164C517.067 79.1324 516.821 79.4084 516.653 79.7444C516.485 80.0804 516.377 80.4284 516.329 80.7884Z" fill="#333333"/>
<path d="M656.449 41.9564V42.9644H652.525V41.9564H653.911V33.8384H652.525V32.8304H656.449V33.8384H655.063V41.9564H656.449ZM661.648 43.1444C660.94 43.1444 660.346 42.9824 659.866 42.6584C659.398 42.3344 659.044 41.8904 658.804 41.3264C658.576 40.7504 658.462 40.1084 658.462 39.4004C658.462 38.3084 658.732 37.4084 659.272 36.7004C659.812 35.9924 660.61 35.6384 661.666 35.6384C662.158 35.6384 662.566 35.7224 662.89 35.8904C663.226 36.0464 663.496 36.2384 663.7 36.4664C663.904 36.6944 664.054 36.9044 664.15 37.0964C664.246 37.2884 664.306 37.4144 664.33 37.4744H664.366L664.384 32.8304H665.572V42.9644H664.564L664.384 41.3444H664.348C664.324 41.4044 664.258 41.5304 664.15 41.7224C664.042 41.9144 663.88 42.1184 663.664 42.3344C663.46 42.5504 663.19 42.7424 662.854 42.9104C662.53 43.0664 662.128 43.1444 661.648 43.1444ZM661.936 42.1184C662.644 42.1184 663.22 41.8784 663.664 41.3984C664.12 40.9064 664.348 40.2404 664.348 39.4004C664.348 38.5724 664.138 37.9184 663.718 37.4384C663.298 36.9464 662.734 36.7004 662.026 36.7004C661.462 36.7004 661 36.8324 660.64 37.0964C660.28 37.3484 660.016 37.6784 659.848 38.0864C659.68 38.4944 659.596 38.9324 659.596 39.4004C659.596 39.8564 659.674 40.2944 659.83 40.7144C659.986 41.1224 660.232 41.4584 660.568 41.7224C660.904 41.9864 661.36 42.1184 661.936 42.1184ZM670.419 43.1444C669.615 43.1444 668.949 42.9644 668.421 42.6044C667.905 42.2324 667.521 41.7584 667.269 41.1824C667.029 40.5944 666.909 39.9884 666.909 39.3644C666.909 38.6804 667.041 38.0564 667.305 37.4924C667.581 36.9164 667.977 36.4604 668.493 36.1244C669.021 35.7884 669.651 35.6204 670.383 35.6204C671.319 35.6204 672.099 35.9264 672.723 36.5384C673.347 37.1384 673.683 37.9484 673.731 38.9684C673.743 39.0164 673.749 39.0884 673.749 39.1844C673.749 39.2684 673.749 39.3464 673.749 39.4184H668.025C668.025 40.2704 668.229 40.9424 668.637 41.4344C669.057 41.9144 669.645 42.1544 670.401 42.1544C670.965 42.1544 671.445 42.0104 671.841 41.7224C672.249 41.4344 672.501 41.0444 672.597 40.5524H673.731C673.611 41.2964 673.257 41.9144 672.669 42.4064C672.081 42.8984 671.331 43.1444 670.419 43.1444ZM668.061 38.7884H672.561C672.561 38.5364 672.489 38.2364 672.345 37.8884C672.213 37.5404 671.985 37.2404 671.661 36.9884C671.349 36.7244 670.917 36.5924 670.365 36.5924C669.861 36.5924 669.447 36.7004 669.123 36.9164C668.799 37.1324 668.553 37.4084 668.385 37.7444C668.217 38.0804 668.109 38.4284 668.061 38.7884ZM677.784 43.1264C677.112 43.1264 676.56 42.9644 676.128 42.6404C675.696 42.3044 675.372 41.8544 675.156 41.2904C674.952 40.7264 674.85 40.0844 674.85 39.3644C674.85 38.2604 675.09 37.3544 675.57 36.6464C676.062 35.9264 676.8 35.5664 677.784 35.5664C678.288 35.5664 678.708 35.6564 679.044 35.8364C679.392 36.0044 679.668 36.2144 679.872 36.4664C680.088 36.7184 680.244 36.9584 680.34 37.1864H680.358V35.6384H681.546V42.9644H680.556L680.376 41.5424H680.34C680.232 41.7824 680.076 42.0284 679.872 42.2804C679.668 42.5204 679.392 42.7244 679.044 42.8924C678.708 43.0484 678.288 43.1264 677.784 43.1264ZM678.234 42.1004C678.978 42.1004 679.512 41.8544 679.836 41.3624C680.172 40.8704 680.34 40.2104 680.34 39.3824C680.34 38.4944 680.166 37.8164 679.818 37.3484C679.482 36.8804 678.954 36.6464 678.234 36.6464C677.442 36.6464 676.872 36.9104 676.524 37.4384C676.188 37.9544 676.02 38.5964 676.02 39.3644C676.02 40.1684 676.194 40.8284 676.542 41.3444C676.89 41.8484 677.454 42.1004 678.234 42.1004ZM684.728 42.9644C684.284 42.9644 683.972 42.8444 683.792 42.6044C683.624 42.3644 683.54 42.0344 683.54 41.6144V36.5024H682.388V35.6384C682.772 35.6384 683.054 35.6084 683.234 35.5484C683.426 35.4764 683.546 35.3084 683.594 35.0444C683.642 34.7804 683.666 34.3484 683.666 33.7484H684.656V35.6384H686.348V36.5024H684.656V42.0284H686.366V42.9644H684.728ZM690.968 43.1444C690.164 43.1444 689.498 42.9644 688.97 42.6044C688.454 42.2324 688.07 41.7584 687.818 41.1824C687.578 40.5944 687.458 39.9884 687.458 39.3644C687.458 38.6804 687.59 38.0564 687.854 37.4924C688.13 36.9164 688.526 36.4604 689.042 36.1244C689.57 35.7884 690.2 35.6204 690.932 35.6204C691.868 35.6204 692.648 35.9264 693.272 36.5384C693.896 37.1384 694.232 37.9484 694.28 38.9684C694.292 39.0164 694.298 39.0884 694.298 39.1844C694.298 39.2684 694.298 39.3464 694.298 39.4184H688.574C688.574 40.2704 688.778 40.9424 689.186 41.4344C689.606 41.9144 690.194 42.1544 690.95 42.1544C691.514 42.1544 691.994 42.0104 692.39 41.7224C692.798 41.4344 693.05 41.0444 693.146 40.5524H694.28C694.16 41.2964 693.806 41.9144 693.218 42.4064C692.63 42.8984 691.88 43.1444 690.968 43.1444ZM688.61 38.7884H693.11C693.11 38.5364 693.038 38.2364 692.894 37.8884C692.762 37.5404 692.534 37.2404 692.21 36.9884C691.898 36.7244 691.466 36.5924 690.914 36.5924C690.41 36.5924 689.996 36.7004 689.672 36.9164C689.348 37.1324 689.102 37.4084 688.934 37.7444C688.766 38.0804 688.658 38.4284 688.61 38.7884Z" fill="#333333"/>
<path d="M878.453 91.8884C878.453 93.2204 878.201 94.2584 877.697 95.0024C877.193 95.7344 876.485 96.2444 875.573 96.5324C874.661 96.8204 873.593 96.9644 872.369 96.9644H869.687V86.8304H872.369C873.593 86.8304 874.661 87.0224 875.573 87.4064C876.485 87.7784 877.193 88.3364 877.697 89.0804C878.201 89.8244 878.453 90.7604 878.453 91.8884ZM870.839 95.9744H872.621C873.557 95.9744 874.367 95.8724 875.051 95.6684C875.747 95.4524 876.281 95.0504 876.653 94.4624C877.037 93.8744 877.229 93.0164 877.229 91.8884C877.229 90.5084 876.809 89.4944 875.969 88.8464C875.129 88.1864 874.013 87.8564 872.621 87.8564H870.839V95.9744ZM883.077 97.1444C882.273 97.1444 881.607 96.9644 881.079 96.6044C880.563 96.2324 880.179 95.7584 879.927 95.1824C879.687 94.5944 879.567 93.9884 879.567 93.3644C879.567 92.6804 879.699 92.0564 879.963 91.4924C880.239 90.9164 880.635 90.4604 881.151 90.1244C881.679 89.7884 882.309 89.6204 883.041 89.6204C883.977 89.6204 884.757 89.9264 885.381 90.5384C886.005 91.1384 886.341 91.9484 886.389 92.9684C886.401 93.0164 886.407 93.0884 886.407 93.1844C886.407 93.2684 886.407 93.3464 886.407 93.4184H880.683C880.683 94.2704 880.887 94.9424 881.295 95.4344C881.715 95.9144 882.303 96.1544 883.059 96.1544C883.623 96.1544 884.103 96.0104 884.499 95.7224C884.907 95.4344 885.159 95.0444 885.255 94.5524H886.389C886.269 95.2964 885.915 95.9144 885.327 96.4064C884.739 96.8984 883.989 97.1444 883.077 97.1444ZM880.719 92.7884H885.219C885.219 92.5364 885.147 92.2364 885.003 91.8884C884.871 91.5404 884.643 91.2404 884.319 90.9884C884.007 90.7244 883.575 90.5924 883.023 90.5924C882.519 90.5924 882.105 90.7004 881.781 90.9164C881.457 91.1324 881.211 91.4084 881.043 91.7444C880.875 92.0804 880.767 92.4284 880.719 92.7884ZM890.785 97.1444C890.089 97.1444 889.513 97.0004 889.057 96.7124C888.613 96.4124 888.277 96.0644 888.049 95.6684C887.833 95.2724 887.725 94.9184 887.725 94.6064H888.841C888.841 94.6184 888.847 94.7084 888.859 94.8764C888.883 95.0444 888.949 95.2364 889.057 95.4524C889.165 95.6684 889.351 95.8604 889.615 96.0284C889.879 96.1844 890.263 96.2624 890.767 96.2624C891.307 96.2624 891.769 96.1664 892.153 95.9744C892.549 95.7824 892.741 95.4824 892.729 95.0744C892.729 94.7264 892.609 94.4624 892.369 94.2824C892.141 94.0904 891.841 93.9464 891.469 93.8504C891.097 93.7424 890.707 93.6404 890.299 93.5444C889.891 93.4484 889.501 93.3284 889.129 93.1844C888.769 93.0284 888.475 92.8124 888.247 92.5364C888.019 92.2604 887.905 91.8764 887.905 91.3844C887.905 90.7844 888.175 90.3104 888.715 89.9624C889.255 89.6024 889.945 89.4224 890.785 89.4224C891.253 89.4224 891.727 89.5004 892.207 89.6564C892.687 89.8004 893.083 90.0584 893.395 90.4304C893.707 90.7904 893.851 91.3004 893.827 91.9604H892.747C892.771 91.5044 892.669 91.1624 892.441 90.9344C892.213 90.7064 891.937 90.5564 891.613 90.4844C891.301 90.4004 891.013 90.3584 890.749 90.3584C890.233 90.3584 889.807 90.4544 889.471 90.6464C889.147 90.8384 888.985 91.1084 888.985 91.4564C888.985 91.7924 889.099 92.0504 889.327 92.2304C889.567 92.3984 889.867 92.5364 890.227 92.6444C890.599 92.7404 890.989 92.8364 891.397 92.9324C891.817 93.0164 892.213 93.1364 892.585 93.2924C892.957 93.4484 893.257 93.6704 893.485 93.9584C893.725 94.2464 893.845 94.6424 893.845 95.1464C893.845 95.8424 893.551 96.3524 892.963 96.6764C892.375 96.9884 891.649 97.1444 890.785 97.1444ZM896.029 88.8464C895.765 88.8464 895.585 88.7804 895.489 88.6484C895.405 88.5044 895.363 88.3244 895.363 88.1084C895.363 87.9284 895.405 87.7724 895.489 87.6404C895.585 87.4964 895.765 87.4244 896.029 87.4244C896.293 87.4244 896.467 87.4964 896.551 87.6404C896.647 87.7724 896.695 87.9284 896.695 88.1084C896.695 88.3244 896.647 88.5044 896.551 88.6484C896.467 88.7804 896.293 88.8464 896.029 88.8464ZM895.453 96.9644V89.6384H896.605V96.9644H895.453ZM900.092 99.9884V98.8904H903.746V95.3444H903.71C903.686 95.4044 903.62 95.5304 903.512 95.7224C903.416 95.9144 903.26 96.1184 903.044 96.3344C902.84 96.5504 902.57 96.7424 902.234 96.9104C901.91 97.0664 901.514 97.1444 901.046 97.1444C900.338 97.1444 899.744 96.9824 899.264 96.6584C898.796 96.3224 898.442 95.8724 898.202 95.3084C897.962 94.7444 897.842 94.1084 897.842 93.4004C897.842 92.2964 898.112 91.3964 898.652 90.7004C899.204 89.9924 900.008 89.6384 901.064 89.6384C901.556 89.6384 901.964 89.7224 902.288 89.8904C902.624 90.0464 902.888 90.2384 903.08 90.4664C903.284 90.6944 903.434 90.9044 903.53 91.0964C903.626 91.2884 903.686 91.4144 903.71 91.4744H903.746V89.6384H904.934V98.2244C904.934 98.8004 904.826 99.2384 904.61 99.5384C904.394 99.8384 904.004 99.9884 903.44 99.9884H900.092ZM901.298 96.1184C902.018 96.1184 902.6 95.8784 903.044 95.3984C903.488 94.9064 903.71 94.2404 903.71 93.4004C903.71 92.5724 903.5 91.9184 903.08 91.4384C902.66 90.9464 902.102 90.7004 901.406 90.7004C900.83 90.7004 900.362 90.8324 900.002 91.0964C899.654 91.3484 899.396 91.6784 899.228 92.0864C899.06 92.4944 898.976 92.9324 898.976 93.4004C898.976 93.8564 899.048 94.2944 899.192 94.7144C899.348 95.1224 899.594 95.4584 899.93 95.7224C900.278 95.9864 900.734 96.1184 901.298 96.1184ZM906.466 96.9644V89.6384H907.456L907.654 91.4564H907.69C907.702 91.3964 907.756 91.2704 907.852 91.0784C907.948 90.8864 908.092 90.6824 908.284 90.4664C908.488 90.2384 908.752 90.0464 909.076 89.8904C909.4 89.7224 909.814 89.6384 910.318 89.6384C910.954 89.6384 911.452 89.7524 911.812 89.9804C912.184 90.2084 912.46 90.5144 912.64 90.8984C912.82 91.2704 912.934 91.6724 912.982 92.1044C913.03 92.5364 913.054 92.9504 913.054 93.3464V96.9644H911.938V93.3464C911.938 92.5544 911.8 91.9124 911.524 91.4204C911.26 90.9284 910.732 90.6824 909.94 90.6824C909.4 90.6824 908.956 90.8144 908.608 91.0784C908.272 91.3304 908.026 91.6724 907.87 92.1044C907.726 92.5244 907.654 92.9864 907.654 93.4904V96.9644H906.466Z" fill="#333333"/>
<path d="M115.318 90.6502C103.025 81.7096 88.9661 75.4094 77.8388 64.7912C70.1293 57.4344 61.4814 43.0307 64.7457 31.7311C68.5966 18.4008 95.5091 24.8558 104.025 26.9848C117.06 30.2436 144.111 46.3872 128.902 62.9909C118.714 74.1133 93.2424 80.8151 79.1481 74.7747C71.6439 71.5586 58.3207 53.7843 69.1646 46.7882C78.7798 40.5848 94.9803 41.2486 105.498 41.0599C122.907 40.7477 141.341 40.8992 158.525 44.1696C182.066 48.6496 164.291 62.7644 151.488 67.0825C129.063 74.6453 102.885 76.0203 81.7668 63.9729C75.3652 60.321 67.3671 51.4262 75.8749 44.9879C87.7549 35.9975 112.837 35.1003 126.283 40.8963C144.354 48.6853 104.564 70.8567 100.097 72.4834C90.3446 76.0353 48.7105 85.8266 45.2697 67.2462C40.1872 39.8007 108.49 41.4146 120.228 41.0599C142.761 40.3791 167.545 39.832 189.785 44.6605C197.554 46.3473 204.981 50.6198 197.15 58.7357C185.615 70.6905 166.591 76.5703 151.242 80.8303C128.299 87.1983 103.871 90.169 80.5393 84.0218C68.9109 80.958 43.4103 65.7927 60.2449 51.2889C69.4146 43.3889 85.8827 42.653 96.9875 41.8783C116.838 40.4934 137.687 40.6471 157.216 44.906C163.783 46.3382 180.441 50.2716 181.438 60.045C182.414 69.6113 166.8 74.7547 160.817 76.6569C134.161 85.1303 102.892 83.3881 78.4116 69.5375C72.3786 66.124 57.8889 58.0306 62.4544 48.0975C66.7069 38.8455 80.1124 33.8451 88.968 31.8947C106.728 27.9832 126.333 28.793 144.286 30.4218C154.488 31.3472 177.911 31.9213 185.121 42.1237C201.131 64.7795 114.876 85.8549 103.37 86.7222C82.4824 88.2967 61.1492 79.4992 68.1008 55.9534C76.7688 26.594 115.132 23.1345 140.931 22.4841C154.608 22.1393 204.664 27.8186 174.155 49.5705C155.6 62.7997 121.019 65.2423 102.961 49.7341C86.5411 35.6321 101.108 20.5826 117.364 17.7378C133.556 14.9041 185.421 8.92048 190.849 32.6312C196.484 57.2465 144.6 58.4091 131.766 56.8535C111.875 54.4425 80.5854 42.8502 77.757 19.3744C75.0635 -2.98177 102.669 -1.15311 117.118 5.21749C135.777 13.4441 139.184 36.7426 121.046 47.9338C101.857 59.7741 74.3223 57.0697 56.2352 44.4969C33.7853 28.8915 67.8624 16.5423 80.2938 14.8737C100.346 12.1821 121.794 12.882 141.586 17.0831C153.125 19.5325 169.855 24.3015 176.037 35.9863C188.361 59.277 145.295 71.0659 130.702 71.3378C114.993 71.6305 99.2935 67.3975 84.8764 61.5179C76.0945 57.9365 62.3136 52.3023 58.0355 42.5329C47.7674 19.0849 97.6677 20.1002 107.953 21.2566C121.903 22.8249 156.881 35.6756 149.851 56.608C144.358 72.9659 110.472 67.0697 100.588 59.8813C84.6907 48.3195 98.0473 30.5274 113.518 28.9488C136.613 26.5921 143.266 55.6164 143.468 73.1381C143.694 92.7376 135.183 105.547 114.5 105.707C105.831 105.774 94.1902 104.475 86.8403 99.2425C82.503 96.1549 82.6875 90.6798 87.986 88.5225C97.8402 84.5105 112.271 87.4639 122.11 88.9317C135.521 90.9323 148.553 94.081 161.144 99.1607C161.745 99.4033 178.132 105.158 176.201 108.899C173.024 115.055 150.625 113.255 147.069 113.072C129.658 112.178 111.989 108.891 95.8419 102.188C91.8156 100.517 66.9 88.9389 80.2938 81.6486C93.8441 74.2732 114.928 79.5592 128.247 83.1216C132.724 84.3188 178.099 95.5536 177.674 106.607C177.187 119.257 107.629 92.5285 101.652 86.6404C95.4785 80.5591 105.101 73.9284 109.753 71.6651C123.743 64.8593 141.149 64.8335 156.234 64.7094C160.105 64.6775 228.21 65.3479 206.806 79.521C189.212 91.1711 160.846 91.7299 140.686 88.8499C121.275 86.0769 139.056 75.5774 148.051 73.3836C158.413 70.8563 193.992 63.7142 200.914 76.4932C204.253 82.6579 196.892 89.8561 192.567 92.7778C177.851 102.72 158.844 106.072 141.504 106.689C118.95 107.492 96.2944 103.594 75.0565 96.0511C68.2982 93.6508 53.0586 88.477 50.7524 79.6847C44.901 57.3763 124.453 68.1745 131.766 69.4557C143.054 71.433 170.14 75.3787 177.183 87.7042C185.127 101.605 144.108 107.77 142.977 107.999C123.078 112.019 99.7516 115.262 79.6391 109.963C76.2708 109.075 60.7201 102.789 67.2825 95.8874C76.5514 86.1391 98.7151 85.9014 110.572 86.0676C121.016 86.214 135.302 87.6448 143.223 95.7237C158.043 110.841 115.32 113.434 111.063 113.563C100.019 113.898 51.2213 116.326 49.6886 97.9332C48.4501 83.071 76.0605 81.907 85.8584 80.3393" stroke="#525252" stroke-linecap="round"/>
<path d="M1169.55 2.40393V130.721" stroke="#525252" stroke-linecap="round"/>
<path d="M1165.95 3.60315C1175.64 4.48445 1184.63 8.40005 1194.46 8.40005C1195.59 8.40005 1200.21 8.37515 1199.79 8.59992C1190.03 13.9277 1180.21 26.5625 1174.21 35.6491C1171.45 39.8321 1167.17 45.4702 1165.95 50.3729" stroke="#525252" stroke-linecap="round"/>
<path d="M1153.48 131.964H1192.48" stroke="#525252" stroke-linecap="round"/>
<path d="M104.909 84.8487C123.571 85.4997 143.356 89.0377 161.612 93.0312C176.342 96.2534 195.329 100.011 209.365 92.6477C240.348 76.3945 271.128 48.027 307.94 48.027C313.478 48.027 315.444 47.9398 320.981 48.027C327.689 48.1326 337.19 55.0482 340.981 60.4644C348.674 71.4536 352.05 77.5618 361.574 87.0861C373.066 98.5779 385.258 104.964 403.51 92.3281C412.415 86.1634 421.96 81.3814 432.341 78.3281C435.585 77.7472 468.981 57.9644 499.981 57.9644C529.981 60.9644 540.285 75.8145 543.317 81.1409C550.497 93.7545 566.826 99.8075 580.714 99.8075C588.48 99.8075 592.144 97.719 597.975 92.2641C608.471 82.4452 619.107 74.5261 632.239 68.3556C650.833 59.6187 658.68 54.4097 679.481 54.9644C688.062 55.1932 707.567 64.7047 712.978 70.3373C721.132 78.8236 730.771 85.3287 739.892 92.7116C750.602 101.382 765.099 105.561 778.695 105.561C787.537 105.561 793.489 100.204 800.558 95.3326C816.004 84.6876 834.556 74.7923 852.594 69.2506C861.201 66.6064 869.728 66.4705 878.676 66.6935C892.976 67.0499 908.309 66.7995 921.763 72.319C933.943 77.3163 943.489 86.6617 955.58 91.7527C970.005 97.8265 983.153 104.059 996.876 111.378C1010.51 118.648 1029.04 125.537 1044.5 126.273C1051.35 126.599 1058.02 127.517 1064.83 128.319C1071.27 129.076 1077.52 129.033 1083.94 130.364C1085.99 130.788 1158.51 130.701 1154.98 132.464" stroke="#525252" stroke-linecap="round"/>
</svg>
